<svg width="16" height="16" viewBox="0 0 16 16" fill="none" xmlns="http://www.w3.org/2000/svg">
<path d="M8.57533 5.2531C8.58224 4.93128 8.32325 4.66668 8.00136 4.66668C7.67962 4.66668 7.4207 4.93105 7.42739 5.25272L7.502 8.83575C7.50765 9.10685 7.72904 9.32368 8.0002 9.32368C8.27124 9.32368 8.49257 9.10705 8.49839 8.83607L8.57533 5.2531Z" fill="#0082B8"/>
<path d="M7.52731 11.1272C7.65863 11.2646 7.8162 11.3333 8.00004 11.3333C8.12125 11.3333 8.23135 11.3022 8.33034 11.2399C8.43135 11.1755 8.51216 11.0896 8.57277 10.9823C8.63539 10.8749 8.66671 10.7558 8.66671 10.6248C8.66671 10.4316 8.60004 10.2662 8.46671 10.1288C8.33539 9.99142 8.17984 9.92271 8.00004 9.92271C7.8162 9.92271 7.65863 9.99142 7.52731 10.1288C7.39802 10.2662 7.33337 10.4316 7.33337 10.6248C7.33337 10.8223 7.39802 10.9898 7.52731 11.1272Z" fill="#0082B8"/>
<path fill-rule="evenodd" clip-rule="evenodd" d="M14.6667 8.00001C14.6667 11.6819 11.6819 14.6667 8.00004 14.6667C4.31814 14.6667 1.33337 11.6819 1.33337 8.00001C1.33337 4.31811 4.31814 1.33334 8.00004 1.33334C11.6819 1.33334 14.6667 4.31811 14.6667 8.00001ZM13.6667 8.00001C13.6667 11.1296 11.1297 13.6667 8.00004 13.6667C4.87043 13.6667 2.33337 11.1296 2.33337 8.00001C2.33337 4.8704 4.87043 2.33334 8.00004 2.33334C11.1297 2.33334 13.6667 4.8704 13.6667 8.00001Z" fill="#0082B8"/>
</svg>
