<svg width="18" height="18" viewBox="0 0 18 18" fill="none" xmlns="http://www.w3.org/2000/svg">
<path d="M1.6875 3.75C1.6875 3.43934 1.93934 3.1875 2.25 3.1875H15.75C16.0607 3.1875 16.3125 3.43934 16.3125 3.75C16.3125 4.06066 16.0607 4.3125 15.75 4.3125H2.25C1.93934 4.3125 1.6875 4.06066 1.6875 3.75Z" fill="#0082B8"/>
<path d="M1.6875 9C1.6875 8.68934 1.93934 8.4375 2.25 8.4375H15.75C16.0607 8.4375 16.3125 8.68934 16.3125 9C16.3125 9.31066 16.0607 9.5625 15.75 9.5625H2.25C1.93934 9.5625 1.6875 9.31066 1.6875 9Z" fill="#0082B8"/>
<path d="M2.25 13.6875C1.93934 13.6875 1.6875 13.9393 1.6875 14.25C1.6875 14.5607 1.93934 14.8125 2.25 14.8125H15.75C16.0607 14.8125 16.3125 14.5607 16.3125 14.25C16.3125 13.9393 16.0607 13.6875 15.75 13.6875H2.25Z" fill="#0082B8"/>
</svg>
