<svg width="18" height="18" viewBox="0 0 18 18" fill="none" xmlns="http://www.w3.org/2000/svg">
<path fill-rule="evenodd" clip-rule="evenodd" d="M14.3147 3.1875C13.9744 3.1875 13.5974 3.28398 12.9266 3.52919C12.2444 3.77854 11.192 4.20847 9.47203 4.92984L9.47042 4.93052C8.26874 5.43893 5.84973 6.47371 2.23272 8.07382C1.92366 8.19907 1.6552 8.33631 1.4459 8.49223C1.24244 8.64382 1.03201 8.85994 0.957794 9.15944L0.950443 9.18911L0.946349 9.21939C0.910552 9.48424 0.984963 9.72694 1.14051 9.9206C1.27808 10.0919 1.45988 10.2014 1.61208 10.2759C1.84015 10.3875 2.14582 10.4843 2.43284 10.5752C2.51121 10.6001 2.5882 10.6245 2.66183 10.6486C2.98719 10.758 3.37267 10.8793 3.73807 10.9741C4.08927 11.0651 4.47393 11.1458 4.77424 11.1458C5.33006 11.1458 5.8851 10.9315 6.44802 10.5389C7.28443 9.9699 8.01999 9.47034 8.65517 9.04037L8.45358 9.22932C8.17173 9.49355 7.92977 9.72038 7.84997 9.80515C7.7714 9.8865 7.69015 9.96548 7.6052 10.0475L7.5805 10.0713C7.50414 10.145 7.42336 10.2229 7.34805 10.2998C7.18955 10.4616 6.99874 10.6733 6.88806 10.9271C6.76115 11.2181 6.74539 11.5512 6.91574 11.8846C7.06608 12.1789 7.33791 12.4258 7.6727 12.651L7.67667 12.6536C8.2531 13.0343 8.67823 13.3262 9.118 13.6282C9.50888 13.8965 9.91143 14.1729 10.442 14.5266L10.4492 14.5313C10.587 14.6201 10.7185 14.7127 10.8575 14.8104L10.9325 14.8631C11.0945 14.9767 11.2691 15.0973 11.4495 15.2029C11.8118 15.415 12.2507 15.5991 12.7737 15.5563L12.7839 15.5555L12.7941 15.5542C13.509 15.4694 13.9458 14.8115 14.132 13.8119C14.5586 11.6009 15.355 6.76409 15.5515 4.76463C15.5775 4.52408 15.5529 4.25308 15.5244 4.10919C15.4992 3.9823 15.4297 3.6825 15.1605 3.45611L15.1494 3.44682L15.1379 3.4381C14.9706 3.31151 14.7863 3.25353 14.6547 3.22483C14.5182 3.19506 14.3948 3.1875 14.3147 3.1875ZM9.90788 5.96698C11.6321 5.24379 12.6598 4.82452 13.3128 4.58581C13.9773 4.34292 14.1905 4.3125 14.3147 4.3125C14.3313 4.3125 14.3724 4.3147 14.4149 4.32398L14.4203 4.3252L14.4209 4.32795C14.424 4.34388 14.4313 4.39452 14.4352 4.46426C14.439 4.53294 14.4381 4.59771 14.4329 4.64508L14.4322 4.65172C14.2412 6.5974 13.4517 11.3995 13.027 13.6005L13.0263 13.6043C12.9479 14.0258 12.8405 14.2454 12.7615 14.3508C12.7241 14.4008 12.6962 14.421 12.6839 14.4284C12.6763 14.433 12.6709 14.4351 12.6669 14.4361C12.4785 14.4476 12.2822 14.3867 12.0178 14.232C11.8813 14.1521 11.7402 14.0555 11.5786 13.9421L11.5082 13.8926C11.3709 13.796 11.2197 13.6896 11.0624 13.5881C10.5805 13.2669 10.1738 12.988 9.77245 12.7128C9.30983 12.3955 8.8542 12.0831 8.29866 11.7162C8.03252 11.537 7.94417 11.422 7.91945 11.3764C7.94197 11.325 8.00401 11.2378 8.1517 11.0871C8.21521 11.0222 8.28429 10.9556 8.36288 10.8797L8.38659 10.8568C8.47264 10.7738 8.56769 10.6816 8.66245 10.5833L8.67004 10.5754L8.67724 10.5674C8.67551 10.5693 8.67573 10.5691 8.6788 10.566C8.68355 10.5612 8.69505 10.5496 8.71648 10.5288C8.74688 10.4992 8.78811 10.4597 8.83953 10.4109C8.9422 10.3135 9.08021 10.1839 9.24279 10.0315L9.34934 9.93163C9.65605 9.64417 10.03 9.29366 10.4011 8.94115C10.8156 8.54741 11.2311 8.14695 11.5479 7.82604C11.7055 7.66639 11.8447 7.52047 11.9487 7.4021C12 7.34367 12.0498 7.28409 12.0906 7.22827C12.1109 7.20056 12.1346 7.1662 12.1565 7.12804C12.1732 7.09888 12.2129 7.02712 12.2331 6.93209L12.2453 6.8743V6.82498C12.2457 6.81875 12.2463 6.80626 12.2468 6.79299C12.2479 6.76202 12.2486 6.71044 12.2415 6.65002C12.2284 6.53715 12.1778 6.3135 11.9642 6.1519C11.6606 5.92216 11.3166 6.01393 11.244 6.03332L11.2395 6.03451C11.1897 6.04655 11.1527 6.06209 11.1401 6.06739C11.1154 6.07774 11.0929 6.08875 11.0761 6.09735C11.0421 6.11478 11.0051 6.13574 10.9685 6.15724C10.894 6.20098 10.7963 6.26177 10.6782 6.33725C10.4406 6.48901 10.1023 6.71187 9.66502 7.00395C8.78953 7.58873 7.50562 8.45879 5.81247 9.6106L5.80677 9.61453C5.3644 9.92351 5.03022 10.0208 4.77424 10.0208C4.62945 10.0208 4.36583 9.9746 4.02036 9.88505C3.68987 9.79938 3.33117 9.68677 3.01835 9.58158L3.01431 9.58023C2.90193 9.54339 2.79984 9.51091 2.7068 9.48132C2.51242 9.4195 2.35758 9.37025 2.23105 9.31993C2.33428 9.25862 2.47538 9.18903 2.66252 9.11351L2.67112 9.11004L2.67959 9.10629C6.29467 7.50699 8.71055 6.47356 9.90788 5.96698Z" fill="#0082B8"/>
</svg>
