<svg width="18" height="18" viewBox="0 0 18 18" fill="none" xmlns="http://www.w3.org/2000/svg">
<path fill-rule="evenodd" clip-rule="evenodd" d="M8.94993 5.57382C8.67689 5.5892 8.3972 5.53056 8.10874 5.41517C7.22495 5.06165 6.81338 4.63049 6.52357 4.32688C6.46399 4.26446 6.40956 4.20744 6.35723 4.15759C6.22253 4.02927 6.09593 3.93676 5.88897 3.86673C5.66548 3.79112 5.31999 3.7327 4.73811 3.7327C4.30547 3.7327 4.01894 3.85342 3.81966 4.02614C3.6135 4.20482 3.45029 4.48335 3.35094 4.88052C3.14809 5.69139 3.24864 6.85418 3.60843 8.11338C4.08801 9.79181 4.63245 12.3609 4.96736 14.0186C5.34728 13.312 5.85537 12.4626 6.42713 11.7657C6.73393 11.3918 7.07373 11.0436 7.43766 10.7849C7.79856 10.5283 8.22494 10.3304 8.69262 10.3304C9.15157 10.3304 9.56173 10.5388 9.90092 10.8007C10.2439 11.0654 10.5628 11.422 10.8518 11.8077C11.4196 12.5657 11.9294 13.5153 12.321 14.3336C12.3297 14.334 12.3396 14.3336 12.3502 14.3321C12.3615 14.3306 12.3717 14.3281 12.3804 14.3252C12.6626 12.7595 13.2013 10.5629 14.1997 8.74692C14.6681 7.89493 14.8838 6.62807 14.645 5.55461C14.5274 5.02587 14.3056 4.5707 13.9781 4.23279C13.6565 3.90094 13.2073 3.6548 12.5774 3.57607C11.9183 3.49368 11.5097 3.60055 11.2294 3.7521C10.9374 3.90998 10.7257 4.14647 10.4996 4.43917C10.4707 4.47651 10.44 4.51693 10.4081 4.55892C10.3253 4.66803 10.2343 4.78779 10.1465 4.89206C10.0199 5.04246 9.86492 5.20492 9.67047 5.33304C9.46791 5.4665 9.22966 5.55807 8.94993 5.57382ZM10.6943 2.76249C11.2156 2.48063 11.8679 2.35363 12.7169 2.45975C13.587 2.56851 14.2765 2.9241 14.786 3.44988C15.2897 3.96959 15.5913 4.62795 15.7432 5.3103C16.0432 6.65905 15.7816 8.2047 15.1855 9.28891C14.2651 10.9631 13.7516 13.044 13.4791 14.5718C13.3785 15.136 12.8808 15.3951 12.5025 15.4468C12.1243 15.4985 11.5743 15.3823 11.3274 14.8635C10.9444 14.0591 10.4637 13.166 9.95139 12.4822C9.69491 12.1398 9.44553 11.8703 9.21341 11.6911C8.97753 11.509 8.80592 11.4554 8.69262 11.4554C8.54521 11.4554 8.34551 11.5198 8.08948 11.7018C7.83649 11.8816 7.56851 12.1482 7.29685 12.4793C6.75379 13.1412 6.25458 13.988 5.88064 14.6971C5.64695 15.1402 5.1835 15.2918 4.80273 15.2438C4.41996 15.1955 4.00277 14.9285 3.9017 14.4254C3.57018 12.7751 3.01042 10.1153 2.52672 8.42245C2.14358 7.08154 1.98741 5.69547 2.25957 4.60751C2.39772 4.05527 2.65494 3.54688 3.08284 3.17601C3.51761 2.79918 4.07876 2.6077 4.73811 2.6077C5.38349 2.6077 5.8647 2.67087 6.24953 2.80108C6.65087 2.93687 6.91419 3.13441 7.13318 3.34302C7.21486 3.42082 7.28751 3.49617 7.35828 3.56957C7.63451 3.85605 7.88214 4.11287 8.52656 4.37064C8.70685 4.44276 8.81976 4.45437 8.88667 4.4506C8.94689 4.44721 8.99594 4.43023 9.05151 4.39362C9.1152 4.35165 9.18915 4.2825 9.28586 4.1676C9.35465 4.08587 9.41806 4.00233 9.4926 3.90414C9.52833 3.85706 9.56662 3.80662 9.60929 3.75139C9.85414 3.43445 10.1847 3.03801 10.6943 2.76249Z" fill="#0082B8"/>
</svg>
