<svg width="18" height="18" viewBox="0 0 18 18" fill="none" xmlns="http://www.w3.org/2000/svg">
<path d="M5.4375 6.75C5.4375 6.43934 5.68934 6.1875 6 6.1875H9C9.31066 6.1875 9.5625 6.43934 9.5625 6.75C9.5625 7.06066 9.31066 7.3125 9 7.3125H6C5.68934 7.3125 5.4375 7.06066 5.4375 6.75Z" fill="#005476"/>
<path d="M5.4375 9.75C5.4375 9.43934 5.68934 9.1875 6 9.1875H12C12.3107 9.1875 12.5625 9.43934 12.5625 9.75C12.5625 10.0607 12.3107 10.3125 12 10.3125H6C5.68934 10.3125 5.4375 10.0607 5.4375 9.75Z" fill="#005476"/>
<path d="M6 12.1875C5.68934 12.1875 5.4375 12.4393 5.4375 12.75C5.4375 13.0607 5.68934 13.3125 6 13.3125H12C12.3107 13.3125 12.5625 13.0607 12.5625 12.75C12.5625 12.4393 12.3107 12.1875 12 12.1875H6Z" fill="#005476"/>
<path fill-rule="evenodd" clip-rule="evenodd" d="M11.9527 2.625H12C13.6569 2.625 15 3.96815 15 5.625V13.5C15 15.1569 13.6569 16.5 12 16.5H6C4.34315 16.5 3 15.1569 3 13.5V5.625C3 3.96815 4.34315 2.625 6 2.625H6.04726C6.21377 1.97804 6.80106 1.5 7.5 1.5H10.5C11.1989 1.5 11.7862 1.97804 11.9527 2.625ZM10.5 2.625H7.5C7.29289 2.625 7.125 2.79289 7.125 3C7.125 3.20711 7.29289 3.375 7.5 3.375H10.5C10.7071 3.375 10.875 3.20711 10.875 3C10.875 2.79289 10.7071 2.625 10.5 2.625ZM6.20067 3.75H6C4.96447 3.75 4.125 4.58947 4.125 5.625V13.5C4.125 14.5355 4.96447 15.375 6 15.375H12C13.0355 15.375 13.875 14.5355 13.875 13.5V5.625C13.875 4.58947 13.0355 3.75 12 3.75H11.7993C11.54 4.19835 11.0552 4.5 10.5 4.5H7.5C6.94479 4.5 6.46003 4.19835 6.20067 3.75Z" fill="#005476"/>
</svg>
