<svg width="16" height="16" viewBox="0 0 16 16" fill="none" xmlns="http://www.w3.org/2000/svg">
<path d="M7.02678 9.42636C7.02678 9.47769 7.06839 9.5193 7.11972 9.5193H8.09636C8.14769 9.5193 8.1893 9.47769 8.1893 9.42636C8.19163 9.17374 8.22072 8.96163 8.27658 8.79004C8.33477 8.61606 8.42321 8.46473 8.5419 8.33603C8.66293 8.20734 8.8177 8.08341 9.00622 7.96425C9.22034 7.83317 9.40536 7.68422 9.5613 7.5174C9.71723 7.35057 9.83709 7.15991 9.92088 6.94542C10.007 6.73093 10.05 6.48785 10.05 6.21616C10.05 5.81339 9.95463 5.46544 9.76378 5.17231C9.57526 4.87679 9.3111 4.64919 8.97131 4.48951C8.63383 4.32984 8.24283 4.25 7.7983 4.25C7.39101 4.25 7.01863 4.32626 6.68116 4.47879C6.34601 4.63132 6.07604 4.86011 5.87123 5.16516C5.77235 5.31412 5.69623 5.4807 5.64286 5.66489C5.54441 6.00471 5.84177 6.30195 6.19557 6.30195H6.20917C6.53632 6.30195 6.77394 6.02136 6.95346 5.74786C7.05121 5.6001 7.1734 5.49047 7.32003 5.41897C7.46898 5.34509 7.62608 5.30815 7.79132 5.30815C7.97053 5.30815 8.13228 5.34628 8.27658 5.42255C8.42321 5.49881 8.53958 5.60605 8.62569 5.74428C8.7118 5.88251 8.75486 6.04576 8.75486 6.23403C8.75486 6.40086 8.72227 6.55219 8.65711 6.68804C8.59194 6.8215 8.50234 6.94304 8.3883 7.05267C8.27658 7.15991 8.14974 7.25882 8.00777 7.34938C7.80063 7.48046 7.62491 7.62464 7.48062 7.78193C7.33632 7.93684 7.2246 8.1418 7.14547 8.39681C7.06867 8.65181 7.0291 8.995 7.02678 9.42636Z" fill="#005476"/>
<path d="M7.09311 11.5212C7.24439 11.6737 7.42476 11.75 7.63422 11.75C7.77387 11.75 7.90071 11.7154 8.01475 11.6463C8.13112 11.5748 8.22421 11.4795 8.29404 11.3603C8.36619 11.2412 8.40226 11.1089 8.40226 10.9635C8.40226 10.749 8.32546 10.5655 8.17185 10.413C8.02057 10.2605 7.84136 10.1842 7.63422 10.1842C7.42476 10.1842 7.24439 10.2605 7.09311 10.413C6.94183 10.5655 6.86619 10.749 6.86619 10.9635C6.86619 11.1828 6.94183 11.3687 7.09311 11.5212Z" fill="#005476"/>
<path fill-rule="evenodd" clip-rule="evenodd" d="M15.3 8C15.3 12.1421 11.9422 15.5 7.80005 15.5C3.65791 15.5 0.300049 12.1421 0.300049 8C0.300049 3.85786 3.65791 0.5 7.80005 0.5C11.9422 0.5 15.3 3.85786 15.3 8ZM14.175 8C14.175 11.5208 11.3209 14.375 7.80005 14.375C4.27923 14.375 1.42505 11.5208 1.42505 8C1.42505 4.47918 4.27923 1.625 7.80005 1.625C11.3209 1.625 14.175 4.47918 14.175 8Z" fill="#005476"/>
</svg>
