<svg width="19" height="18" viewBox="0 0 19 18" fill="none" xmlns="http://www.w3.org/2000/svg">
<path fill-rule="evenodd" clip-rule="evenodd" d="M11.9749 10.875C11.9749 11.9623 11.0683 12.8438 9.94994 12.8438C8.83156 12.8438 7.92494 11.9623 7.92494 10.875C7.92494 9.78769 8.83156 8.90625 9.94994 8.90625C11.0683 8.90625 11.9749 9.78769 11.9749 10.875ZM10.8499 10.875C10.8499 11.3113 10.4771 11.7188 9.94994 11.7188C9.4228 11.7188 9.04994 11.3113 9.04994 10.875C9.04994 10.4387 9.4228 10.0312 9.94994 10.0312C10.4771 10.0312 10.8499 10.4387 10.8499 10.875Z" fill="#0082B8"/>
<path fill-rule="evenodd" clip-rule="evenodd" d="M15.2 4.125V5.75303C16.0738 6.06191 16.7 6.89534 16.7 7.875V13.875C16.7 15.1176 15.6926 16.125 14.45 16.125H5.44995C4.20731 16.125 3.19995 15.1176 3.19995 13.875V12.247C2.32606 11.9381 1.69995 11.1047 1.69995 10.125V4.125C1.69995 2.88236 2.70731 1.875 3.94995 1.875H12.95C14.1926 1.875 15.2 2.88236 15.2 4.125ZM4.96245 3H11.9374C11.9374 4.13909 12.8608 5.0625 13.9999 5.0625H14.075V5.625H9.76156C9.4082 5.33266 8.95025 5.15625 8.44992 5.15625C7.94959 5.15625 7.49164 5.33266 7.13829 5.625H5.44995C4.20731 5.625 3.19995 6.63236 3.19995 7.875V9.20916C3.10201 9.19489 3.00184 9.1875 2.89995 9.1875H2.82495V5.0625H2.89995C4.03903 5.0625 4.96245 4.13909 4.96245 3ZM3.19995 10.3615V10.9635C3.01392 10.797 2.88363 10.5695 2.84051 10.3125H2.89995C3.00487 10.3125 3.10576 10.3297 3.19995 10.3615ZM13.0625 3.00556C13.5687 3.05582 13.9762 3.44167 14.0594 3.9375H13.9999C13.484 3.9375 13.0654 3.52076 13.0625 3.00556ZM2.89995 3.9375H2.84051C2.92369 3.44168 3.3312 3.05583 3.83743 3.00556C3.83444 3.52077 3.41586 3.9375 2.89995 3.9375ZM13.4374 6.75H6.46246C6.46246 7.88909 5.53904 8.8125 4.39996 8.8125H4.32495V12.9375H4.39996C5.53904 12.9375 6.46246 13.8609 6.46246 15H13.4374C13.4374 13.8609 14.3609 12.9375 15.4999 12.9375H15.575V8.8125H15.4999C14.3609 8.8125 13.4374 7.88909 13.4374 6.75ZM4.34051 7.6875C4.42369 7.19167 4.8312 6.80582 5.33744 6.75556C5.33445 7.27077 4.91587 7.6875 4.39996 7.6875H4.34051ZM5.33744 14.9944C5.33445 14.4792 4.91587 14.0625 4.39996 14.0625H4.34051C4.42369 14.5583 4.8312 14.9442 5.33744 14.9944ZM15.5594 14.0625C15.4762 14.5583 15.0687 14.9442 14.5625 14.9944C14.5655 14.4792 14.984 14.0625 15.4999 14.0625H15.5594ZM14.5625 6.75556C14.5655 7.27076 14.984 7.6875 15.4999 7.6875H15.5594C15.4762 7.19167 15.0687 6.80582 14.5625 6.75556Z" fill="#0082B8"/>
</svg>
