<svg width="19" height="18" viewBox="0 0 19 18" fill="none" xmlns="http://www.w3.org/2000/svg">
<path fill-rule="evenodd" clip-rule="evenodd" d="M12.7749 5.625C12.7749 7.48896 11.2639 9 9.39994 9C7.53598 9 6.02494 7.48896 6.02494 5.625C6.02494 3.76104 7.53598 2.25 9.39994 2.25C11.2639 2.25 12.7749 3.76104 12.7749 5.625ZM11.6499 5.625C11.6499 6.86764 10.6426 7.875 9.39994 7.875C8.1573 7.875 7.14994 6.86764 7.14994 5.625C7.14994 4.38236 8.1573 3.375 9.39994 3.375C10.6426 3.375 11.6499 4.38236 11.6499 5.625Z" fill="#0082B8"/>
<path fill-rule="evenodd" clip-rule="evenodd" d="M14.7999 12.7125C14.7999 14.3901 12.3823 15.75 9.39994 15.75C6.4176 15.75 3.99994 14.3901 3.99994 12.7125C3.99994 11.0349 6.4176 9.675 9.39994 9.675C12.3823 9.675 14.7999 11.0349 14.7999 12.7125ZM13.6749 12.7125C13.6749 12.9643 13.4816 13.4215 12.6668 13.8798C11.8872 14.3183 10.7345 14.625 9.39994 14.625C8.06539 14.625 6.91267 14.3183 6.13311 13.8798C5.31828 13.4215 5.12494 12.9643 5.12494 12.7125C5.12494 12.4607 5.31828 12.0035 6.13311 11.5452C6.91267 11.1067 8.06539 10.8 9.39994 10.8C10.7345 10.8 11.8872 11.1067 12.6668 11.5452C13.4816 12.0035 13.6749 12.4607 13.6749 12.7125Z" fill="#0082B8"/>
<path d="M14.2749 5.62499C14.2749 5.29461 14.1681 4.98918 13.9872 4.74135C13.8206 4.51325 13.5912 4.33394 13.3245 4.22886L13.3055 4.22115C13.2715 4.20704 13.238 4.19117 13.2053 4.17362C13.1709 4.1551 13.1373 4.13472 13.1052 4.11259C12.9158 3.98209 12.7749 3.79089 12.7749 3.56249C12.7749 3.25183 13.0297 2.99373 13.3334 3.05951C14.2324 3.25429 14.9598 3.90965 15.2563 4.76621C15.3494 5.03529 15.3999 5.32424 15.3999 5.62499C15.3999 5.92575 15.3494 6.21469 15.2563 6.48378C14.9598 7.34033 14.2324 7.9957 13.3334 8.19047C13.0297 8.25625 12.7749 7.99815 12.7749 7.68749C12.7749 7.45909 12.9158 7.26789 13.1052 7.13739C13.1373 7.11526 13.1709 7.09488 13.2053 7.07636C13.238 7.05881 13.2715 7.04294 13.3055 7.02883L13.3245 7.02112C13.5912 6.91604 13.8206 6.73673 13.9872 6.50863C14.1681 6.2608 14.2749 5.95537 14.2749 5.62499Z" fill="#0082B8"/>
<path d="M15.7749 12.375C15.7749 12.4404 15.7406 12.5882 15.5684 12.778C15.5049 12.848 15.4227 12.9236 15.3165 13.003C15.297 13.0175 15.2783 13.0329 15.2603 13.0491C15.2418 13.0656 15.2242 13.0829 15.2075 13.1009C15.096 13.2214 15.0249 13.3745 15.0249 13.5405C15.0249 13.9697 15.4654 14.2596 15.8223 14.0213C15.88 13.9827 15.9357 13.9433 15.9893 13.903L16.0108 13.8868C16.1726 13.7633 16.315 13.6321 16.4359 13.4943C16.7335 13.1548 16.8999 12.7753 16.8999 12.375C16.8999 11.9747 16.7335 11.5952 16.4358 11.2557C16.315 11.1179 16.1726 10.9866 16.0108 10.8632L15.9893 10.847C15.9357 10.8067 15.88 10.7673 15.8223 10.7287C15.4654 10.4903 15.0249 10.7803 15.0249 11.2095C15.0249 11.3755 15.096 11.5286 15.2075 11.6491C15.2242 11.6671 15.2418 11.6844 15.2603 11.7009C15.2783 11.7171 15.297 11.7324 15.3165 11.747C15.4227 11.8264 15.5049 11.902 15.5684 11.972C15.7406 12.1618 15.7749 12.3096 15.7749 12.375Z" fill="#0082B8"/>
<path d="M4.5249 5.62488C4.5249 5.2945 4.63171 4.98907 4.81268 4.74123C4.97923 4.51314 5.2086 4.33383 5.47534 4.22874L5.49439 4.22104C5.52836 4.20693 5.56186 4.19105 5.59451 4.17351C5.62899 4.15499 5.66251 4.1346 5.69464 4.11247C5.88408 3.98198 6.0249 3.79078 6.0249 3.56238C6.0249 3.25172 5.77011 2.99362 5.46649 3.0594C4.56744 3.25417 3.84001 3.90954 3.5436 4.76609C3.45048 5.03518 3.3999 5.32412 3.3999 5.62488C3.3999 5.92563 3.45048 6.21457 3.5436 6.48366C3.84001 7.34022 4.56744 7.99558 5.46649 8.19036C5.77011 8.25613 6.0249 7.99804 6.0249 7.68738C6.0249 7.45897 5.88408 7.26777 5.69464 7.13728C5.66251 7.11515 5.62899 7.09477 5.59451 7.07624C5.56186 7.0587 5.52835 7.04282 5.49438 7.02871L5.47534 7.02101C5.2086 6.91593 4.97923 6.73662 4.81268 6.50852C4.63171 6.26068 4.5249 5.95525 4.5249 5.62488Z" fill="#0082B8"/>
<path d="M3.0249 12.3749C3.0249 12.4403 3.05925 12.5881 3.23146 12.7779C3.29495 12.8479 3.37719 12.9235 3.48335 13.0029C3.5028 13.0174 3.52158 13.0328 3.53959 13.0489C3.55801 13.0654 3.57562 13.0827 3.59232 13.1008C3.70389 13.2212 3.7749 13.3744 3.7749 13.5404C3.7749 13.9695 3.33444 14.2595 2.97756 14.0212C2.91988 13.9826 2.86418 13.9432 2.81054 13.9029L2.78902 13.8866C2.62729 13.7632 2.48483 13.632 2.36399 13.4941C2.06634 13.1546 1.8999 12.7752 1.8999 12.3749C1.8999 11.9745 2.06635 11.5951 2.36401 11.2556C2.48484 11.1178 2.6273 10.9865 2.78902 10.8631L2.81054 10.8468C2.86418 10.8066 2.91988 10.7671 2.97756 10.7286C3.33444 10.4902 3.7749 10.7802 3.7749 11.2094C3.7749 11.3753 3.70389 11.5285 3.59232 11.649C3.57562 11.667 3.55801 11.6843 3.53959 11.7008C3.52158 11.717 3.5028 11.7323 3.48335 11.7469C3.37719 11.8262 3.29495 11.9019 3.23146 11.9719C3.05925 12.1617 3.0249 12.3095 3.0249 12.3749Z" fill="#0082B8"/>
</svg>
