<svg width="19" height="18" viewBox="0 0 19 18" fill="none" xmlns="http://www.w3.org/2000/svg">
<path fill-rule="evenodd" clip-rule="evenodd" d="M13.1627 4.5C13.7252 4.5 13.1627 4.49924 13.1627 4.49924L13.1627 4.49843L13.1627 4.49664L13.1627 4.49242L13.1625 4.48145C13.1623 4.47304 13.162 4.46242 13.1614 4.44976C13.1603 4.42444 13.1582 4.39079 13.1543 4.34999C13.1466 4.26858 13.1316 4.15748 13.1024 4.02641C13.0445 3.76572 12.9283 3.41562 12.6932 3.06298C12.2012 2.32487 11.2641 1.6875 9.60022 1.6875C7.93636 1.6875 6.99927 2.32487 6.50719 3.06298C6.2721 3.41562 6.15592 3.76572 6.09799 4.02641C6.06886 4.15748 6.05387 4.26858 6.04611 4.34999C6.04223 4.39079 6.04013 4.42444 6.03901 4.44976C6.03844 4.46242 6.03812 4.47304 6.03794 4.48145L6.03776 4.49242L6.03773 4.49664L6.03772 4.49843L6.03772 4.49924C6.03772 4.49924 5.48361 4.5 6.04611 4.5H4.75617C3.65628 4.5 2.71761 5.29518 2.53679 6.3801C2.30821 7.75155 3.36581 9 4.75617 9H14.4441C15.8345 9 16.8921 7.75155 16.6635 6.3801C16.4827 5.29518 15.544 4.5 14.4441 4.5H13.1627ZM12.0376 4.5H7.16289C7.16323 4.49236 7.16407 4.47737 7.16605 4.45665C7.17001 4.41501 7.17845 4.35033 7.1962 4.27046C7.23202 4.10928 7.30334 3.89688 7.44325 3.68702C7.70117 3.30013 8.26408 2.8125 9.60022 2.8125C10.9364 2.8125 11.4993 3.30013 11.7572 3.68702C11.8971 3.89688 11.9684 4.10928 12.0042 4.27046C12.022 4.35033 12.0304 4.41501 12.0344 4.45665C12.0364 4.47737 12.0372 4.49236 12.0376 4.5ZM4.75617 7.875C4.06099 7.875 3.53219 7.25077 3.64648 6.56505C3.73689 6.02259 4.20623 5.625 4.75617 5.625H14.4441C14.994 5.625 15.4634 6.02259 15.5538 6.56505C15.6681 7.25077 15.1393 7.875 14.4441 7.875H4.75617Z" fill="#0082B8"/>
<path d="M10.1626 10.875C10.1626 10.5643 9.91079 10.3125 9.60013 10.3125C9.28947 10.3125 9.03763 10.5643 9.03763 10.875V11.8125H8.10013C7.78947 11.8125 7.53763 12.0643 7.53763 12.375C7.53763 12.6857 7.78947 12.9375 8.10013 12.9375H9.03763V13.875C9.03763 14.1857 9.28947 14.4375 9.60013 14.4375C9.91079 14.4375 10.1626 14.1857 10.1626 13.875V12.9375H11.1001C11.4108 12.9375 11.6626 12.6857 11.6626 12.375C11.6626 12.0643 11.4108 11.8125 11.1001 11.8125H10.1626V10.875Z" fill="#0082B8"/>
<path d="M16.1571 10.5795C16.201 10.272 15.9873 9.98709 15.6798 9.94315C15.3722 9.89922 15.0873 10.1129 15.0434 10.4205L14.6613 13.0947C14.4898 14.2955 13.4614 15.1875 12.2483 15.1875H6.95211C5.73908 15.1875 4.71065 14.2955 4.5391 13.0947L4.15707 10.4205C4.11313 10.1129 3.82821 9.89922 3.52067 9.94315C3.21313 9.98709 2.99944 10.272 3.04337 10.5795L3.42541 13.2538C3.67613 15.0089 5.17923 16.3125 6.95211 16.3125H12.2483C14.0212 16.3125 15.5243 15.0089 15.775 13.2538L16.1571 10.5795Z" fill="#0082B8"/>
</svg>
