<svg width="19" height="18" viewBox="0 0 19 18" fill="none" xmlns="http://www.w3.org/2000/svg">
<path fill-rule="evenodd" clip-rule="evenodd" d="M10.175 9.375C9.76539 9.375 9.37491 9.42632 9.01917 9.51923C7.93612 9.8021 7.17505 10.4705 7.17505 11.25C7.17505 12.2855 8.51819 13.125 10.175 13.125C11.8319 13.125 13.175 12.2855 13.175 11.25C13.175 10.4705 12.414 9.8021 11.3309 9.51923C10.9752 9.42632 10.5847 9.375 10.175 9.375ZM12.05 11.2502C12.0501 11.256 12.0501 11.2865 12.0076 11.3493C11.9607 11.4186 11.8666 11.5178 11.7001 11.6218C11.3626 11.8328 10.8264 12 10.175 12C9.52374 12 8.98748 11.8328 8.64998 11.6218C8.48347 11.5178 8.38938 11.4186 8.3425 11.3493C8.30001 11.2865 8.30004 11.256 8.30005 11.2502C8.30004 11.2443 8.30001 11.2135 8.3425 11.1507C8.38938 11.0814 8.48347 10.9822 8.64998 10.8782C8.98748 10.6672 9.52374 10.5 10.175 10.5C10.8264 10.5 11.3626 10.6672 11.7001 10.8782C11.8666 10.9822 11.9607 11.0814 12.0076 11.1507C12.0501 11.2135 12.0501 11.2443 12.05 11.2502Z" fill="#0082B8"/>
<path fill-rule="evenodd" clip-rule="evenodd" d="M8.30005 6.75C8.30005 7.41736 8.6487 8.00328 9.17379 8.33556C9.46348 8.51888 9.80687 8.625 10.175 8.625C10.5432 8.625 10.8866 8.51888 11.1763 8.33556C11.7014 8.00328 12.05 7.41736 12.05 6.75C12.05 5.71447 11.2106 4.875 10.175 4.875C9.13951 4.875 8.30005 5.71447 8.30005 6.75ZM10.925 6.75C10.925 7.16421 10.5893 7.5 10.175 7.5C9.76084 7.5 9.42505 7.16421 9.42505 6.75C9.42505 6.33579 9.76083 6 10.175 6C10.5893 6 10.925 6.33579 10.925 6.75Z" fill="#0082B8"/>
<path fill-rule="evenodd" clip-rule="evenodd" d="M8.30005 2.4375C6.65699 2.4375 5.27373 3.54981 4.86219 5.0625H4.55005C4.23939 5.0625 3.98755 5.31434 3.98755 5.625C3.98755 5.93566 4.23939 6.1875 4.55005 6.1875H4.73755V7.3125H4.55005C4.23939 7.3125 3.98755 7.56434 3.98755 7.875C3.98755 8.18566 4.23939 8.4375 4.55005 8.4375H4.73755V9.5625H4.55005C4.23939 9.5625 3.98755 9.81434 3.98755 10.125C3.98755 10.4357 4.23939 10.6875 4.55005 10.6875H4.73755V11.8125H4.55005C4.23939 11.8125 3.98755 12.0643 3.98755 12.375C3.98755 12.6857 4.23939 12.9375 4.55005 12.9375H4.86219C5.27373 14.4502 6.65699 15.5625 8.30005 15.5625H12.05C14.0176 15.5625 15.6125 13.9675 15.6125 12V6C15.6125 4.03249 14.0176 2.4375 12.05 2.4375H8.30005ZM8.30005 3.5625C7.28607 3.5625 6.4167 4.18164 6.04936 5.0625C6.36002 5.0625 6.61255 5.31434 6.61255 5.625C6.61255 5.93566 6.36071 6.1875 6.05005 6.1875H5.86255V7.3125H6.05005C6.36071 7.3125 6.61255 7.56434 6.61255 7.875C6.61255 8.18566 6.36071 8.4375 6.05005 8.4375H5.86255V9.5625H6.05005C6.36071 9.5625 6.61255 9.81434 6.61255 10.125C6.61255 10.4357 6.36071 10.6875 6.05005 10.6875H5.86255V11.8125H6.05005C6.36071 11.8125 6.61255 12.0643 6.61255 12.375C6.61255 12.6857 6.36071 12.9375 6.05005 12.9375C6.41738 13.8184 7.28607 14.4375 8.30005 14.4375H12.05C13.3962 14.4375 14.4875 13.3462 14.4875 12V6C14.4875 4.65381 13.3962 3.5625 12.05 3.5625H8.30005Z" fill="#0082B8"/>
</svg>
