<svg width="19" height="18" viewBox="0 0 19 18" fill="none" xmlns="http://www.w3.org/2000/svg">
<path fill-rule="evenodd" clip-rule="evenodd" d="M13.5753 1.44508C13.3556 1.22541 12.9995 1.22541 12.7798 1.44508C12.5601 1.66475 12.5601 2.02091 12.7798 2.24058L13.973 3.43382L13.1775 4.22932L12.5146 3.5664C11.7092 2.76095 10.4033 2.76095 9.59781 3.5664L7.48021 5.684C7.47895 5.68524 7.47769 5.68648 7.47645 5.68773C7.4752 5.68898 7.47395 5.69023 7.47272 5.69149L5.88922 7.27499C5.88796 7.27623 5.8867 7.27747 5.88546 7.27872C5.88421 7.27997 5.88296 7.28122 5.88173 7.28248L5.35516 7.80904C4.56227 8.60194 4.18896 9.72187 4.34754 10.8319L4.62596 12.7809L3.23384 14.173C3.01417 14.3927 3.01417 14.7488 3.23384 14.9685C3.45351 15.1882 3.80967 15.1882 4.02934 14.9685L5.42146 13.5764L7.37042 13.8548C8.48047 14.0134 9.60041 13.6401 10.3933 12.8472L14.6359 8.60454C15.4414 7.79908 15.4414 6.49318 14.6359 5.68772L13.973 5.02481L14.7685 4.22932L15.9618 5.42256C16.1814 5.64223 16.5376 5.64223 16.7573 5.42256C16.9769 5.20289 16.9769 4.84673 16.7573 4.62706L13.5753 1.44508ZM6.28322 8.47198L6.15066 8.60454C5.60815 9.14705 5.35273 9.91332 5.46123 10.6728L5.71977 12.4826L7.52952 12.7411C8.28903 12.8496 9.0553 12.5942 9.59781 12.0517L13.8404 7.80904C14.2066 7.44293 14.2066 6.84934 13.8404 6.48322L11.7191 4.3619C11.353 3.99578 10.7594 3.99578 10.3933 4.3619L8.66971 6.08549L9.3326 6.74839C9.55227 6.96806 9.55227 7.32421 9.3326 7.54388C9.11293 7.76355 8.75678 7.76355 8.53711 7.54388L7.87421 6.88099L7.07871 7.67648L7.74161 8.33938C7.96128 8.55905 7.96128 8.9152 7.74161 9.13487C7.52194 9.35454 7.16579 9.35454 6.94612 9.13487L6.28322 8.47198Z" fill="#0082B8"/>
</svg>
