<svg width="19" height="18" viewBox="0 0 19 18" fill="none" xmlns="http://www.w3.org/2000/svg">
<path fill-rule="evenodd" clip-rule="evenodd" d="M11.3887 11.7842L6.61571 7.01126L4.36181 9.26516C3.04379 10.5832 3.04379 12.7201 4.36181 14.0381C5.67983 15.3562 7.81676 15.3562 9.13478 14.0381L11.3887 11.7842ZM12.1842 10.9887L7.4112 6.21577L9.66511 3.96186C10.9831 2.64385 13.1201 2.64385 14.4381 3.96186C15.7561 5.27988 15.7561 7.41682 14.4381 8.73484L12.1842 10.9887ZM15.2336 9.53033C16.9909 7.77297 16.9909 4.92373 15.2336 3.16637C13.4762 1.40901 10.627 1.40901 8.86961 3.16637L3.56631 8.46967C1.80895 10.227 1.80895 13.0763 3.56631 14.8336C5.32367 16.591 8.17291 16.591 9.93027 14.8336L15.2336 9.53033Z" fill="#0082B8"/>
</svg>
