<svg width="19" height="18" viewBox="0 0 19 18" fill="none" xmlns="http://www.w3.org/2000/svg">
<path fill-rule="evenodd" clip-rule="evenodd" d="M7.7251 9.75C9.17485 9.75 10.3501 8.57475 10.3501 7.125C10.3501 5.67525 9.17485 4.5 7.7251 4.5C6.27535 4.5 5.1001 5.67525 5.1001 7.125C5.1001 8.57475 6.27535 9.75 7.7251 9.75ZM7.7251 8.625C8.55352 8.625 9.2251 7.95343 9.2251 7.125C9.2251 6.29657 8.55352 5.625 7.7251 5.625C6.89667 5.625 6.2251 6.29657 6.2251 7.125C6.2251 7.95343 6.89667 8.625 7.7251 8.625Z" fill="#0082B8"/>
<path d="M10.7478 13.1477L13.7478 10.1477C13.9675 9.92808 13.9675 9.57192 13.7478 9.35225C13.5282 9.13258 13.172 9.13258 12.9524 9.35225L9.95235 12.3523C9.73268 12.5719 9.73268 12.9281 9.95235 13.1477C10.172 13.3674 10.5282 13.3674 10.7478 13.1477Z" fill="#0082B8"/>
<path fill-rule="evenodd" clip-rule="evenodd" d="M5.37003 1.5H9.29867C10.1966 1.5 11.055 1.86938 11.6725 2.52149L16.204 7.30677C17.4448 8.61707 17.3903 10.6852 16.0823 11.9283L12.2186 15.6004C10.9081 16.846 8.83591 16.7914 7.59267 15.4785L2.99621 10.6246C2.4208 10.017 2.1001 9.2118 2.1001 8.37478V4.77132C2.1001 2.96462 3.56409 1.5 5.37003 1.5ZM9.29867 2.625H5.37003C4.18587 2.625 3.2251 3.58549 3.2251 4.77132V8.37478C3.2251 8.9241 3.43557 9.45243 3.81308 9.85108L8.40953 14.705C9.22503 15.5661 10.584 15.6019 11.4436 14.7849L15.3073 11.1129C16.1655 10.2972 16.2013 8.94006 15.3871 8.08031L10.8556 3.29503C10.4505 2.86723 9.88749 2.625 9.29867 2.625Z" fill="#0082B8"/>
</svg>
