<svg width="19" height="18" viewBox="0 0 19 18" fill="none" xmlns="http://www.w3.org/2000/svg">
<path fill-rule="evenodd" clip-rule="evenodd" d="M3.04316 4.65058L3.68774 3.36142C4.14561 2.44567 5.36607 2.24762 6.09004 2.97158L7.80134 4.68288C8.25788 5.13942 8.37106 5.83688 8.08232 6.41436L7.88527 6.80846C7.56824 7.44251 7.56297 8.19279 7.93238 8.79783C8.22157 9.27149 8.59182 9.81547 8.96056 10.1842C9.27835 10.502 9.72631 10.8209 10.1472 11.0881C10.8527 11.5359 11.7526 11.4515 12.4256 10.9563C13.0257 10.5147 13.8604 10.5872 14.3753 11.1257L15.8449 12.6624C16.5429 13.3921 16.3349 14.5891 15.4317 15.0407L14.0994 15.7069C13.0641 16.2245 11.891 16.4445 10.7966 16.0672C9.48205 15.6141 7.59814 14.7081 5.82003 12.93C4.04192 11.1519 3.13593 9.26797 2.68279 7.95343C2.30555 6.85905 2.52548 5.68594 3.04316 4.65058ZM4.04939 5.15369L4.69397 3.86454C4.80844 3.6356 5.11355 3.58609 5.29454 3.76708L7.00584 5.47838C7.11998 5.59251 7.14827 5.76688 7.07609 5.91125L6.87904 6.30534C6.40981 7.24381 6.37723 8.40959 6.9722 9.38407C7.27123 9.87384 7.69792 10.5126 8.16506 10.9797C8.57132 11.386 9.10246 11.7574 9.54434 12.0379C10.6917 12.7662 12.0959 12.5956 13.0923 11.8624C13.237 11.756 13.4382 11.7735 13.5623 11.9033L15.0319 13.4399C15.2064 13.6224 15.1544 13.9216 14.9286 14.0345L13.5963 14.7006C12.7328 15.1324 11.8821 15.2514 11.1632 15.0036C9.96996 14.5923 8.24606 13.765 6.61552 12.1345C4.98499 10.504 4.1577 8.78006 3.74638 7.5868C3.49858 6.86795 3.61761 6.01725 4.04939 5.15369Z" fill="white"/>
</svg>
