<svg width="65" height="65" viewBox="0 0 65 65" fill="none" xmlns="http://www.w3.org/2000/svg">
<rect width="65" height="65" rx="32.5" fill="#DCEFF9"/>
<mask id="path-2-inside-1_482_4590" fill="white">
<path d="M40.8234 15.5134C41.7494 15.4472 42.7547 15.6335 43.6368 15.9059C43.7037 15.9271 43.7703 15.9492 43.8366 15.9721C43.9029 15.995 43.9689 16.0187 44.0347 16.0431C44.1004 16.0677 44.1658 16.0929 44.231 16.119C44.2961 16.1451 44.3609 16.172 44.4254 16.1996C44.4899 16.2273 44.554 16.2558 44.6178 16.285C44.6816 16.3143 44.745 16.3442 44.808 16.375C44.8711 16.4058 44.9338 16.4373 44.9961 16.4696C45.0584 16.5019 45.1203 16.535 45.1817 16.5688C45.2432 16.6026 45.3043 16.6371 45.3649 16.6724C45.4256 16.7077 45.4858 16.7438 45.5455 16.7805C45.6053 16.8173 45.6646 16.8548 45.7235 16.893C45.7823 16.9312 45.8406 16.9701 45.8985 17.0098C45.9565 17.0494 46.0139 17.0897 46.0708 17.1307C46.1277 17.1718 46.1841 17.2135 46.24 17.2559C46.2959 17.2983 46.3513 17.3414 46.4061 17.3851C46.461 17.4289 46.5153 17.4733 46.5691 17.5184C46.6229 17.5634 46.6761 17.6091 46.7287 17.6555C46.7814 17.7019 46.8335 17.7489 46.885 17.7965C46.9365 17.8442 46.9874 17.8924 47.0377 17.9413C47.0881 17.9902 47.1378 18.0397 47.1869 18.0897C47.2361 18.1398 47.2846 18.1905 47.3325 18.2418C47.3804 18.2931 47.4276 18.3449 47.4742 18.3973C47.5209 18.4498 47.5669 18.5028 47.6122 18.5563C47.6576 18.6099 47.7023 18.664 47.7463 18.7186C47.7903 18.7732 47.8337 18.8284 47.8764 18.884C47.9191 18.9398 47.9611 18.996 48.0024 19.0527C48.0437 19.1094 48.0843 19.1666 48.1241 19.2243C48.1641 19.282 48.2033 19.3402 48.2418 19.3988C48.2803 19.4575 48.3181 19.5166 48.3551 19.5762C48.3922 19.6358 48.4285 19.6958 48.4641 19.7562C48.4997 19.8167 48.5346 19.8776 48.5687 19.9389C48.6028 20.0002 48.6362 20.0619 48.6688 20.1241C48.722 20.2245 48.7726 20.3262 48.8205 20.4293C48.8684 20.5323 48.9136 20.6365 48.9562 20.7419C48.9986 20.8473 49.0383 20.9537 49.0753 21.0611C49.1122 21.1686 49.1464 21.277 49.1777 21.3862C49.209 21.4955 49.2374 21.6055 49.263 21.7162C49.2886 21.8269 49.3113 21.9382 49.3311 22.0501C49.3509 22.162 49.3678 22.2744 49.3817 22.3871C49.3957 22.4999 49.4066 22.613 49.4147 22.7263C49.5246 24.1742 49.2945 25.7474 49.0853 27.1801C48.7705 29.2437 48.3794 31.2928 47.9119 33.3273C47.4445 35.3618 46.9021 37.3761 46.2847 39.3703C45.5009 41.8717 43.4923 48.024 41.0851 49.2608C40.6181 49.5007 40.0944 49.579 39.5908 49.4084C37.7577 48.7874 36.7481 45.5137 36.2952 43.7935C35.9998 42.6713 35.8228 41.4233 35.3024 40.3825C34.9371 39.6515 34.3848 39.1048 33.6 38.8469C32.7231 38.5587 31.6528 38.5891 30.8255 39.0184C29.4571 39.7286 29.1166 41.5449 28.7457 42.8993C28.5455 43.635 28.3317 44.3667 28.1044 45.0945C27.67 46.28 27.2253 47.4904 26.3996 48.4704C25.9654 48.9858 25.3872 49.405 24.693 49.4493C24.0506 49.4903 23.4867 49.1636 23.0268 48.7467C20.271 46.2491 17.8044 36.9496 16.979 33.137C16.3157 30.073 15.7384 26.9256 15.57 23.7911C15.4609 21.7607 16.0442 19.8373 17.4233 18.3132C17.4958 18.2341 17.5698 18.1563 17.6452 18.0799C17.7205 18.0035 17.7974 17.9285 17.8756 17.855C17.9538 17.7815 18.0334 17.7095 18.1143 17.639C18.1952 17.5684 18.2774 17.4995 18.3609 17.432C18.4444 17.3646 18.5292 17.2987 18.6152 17.2344C18.7012 17.1702 18.7883 17.1076 18.8766 17.0465C18.965 16.9856 19.0545 16.9263 19.145 16.8686C19.2356 16.811 19.3272 16.7551 19.4198 16.7008C19.5125 16.6467 19.6061 16.5942 19.7007 16.5435C19.7953 16.4928 19.8908 16.4439 19.9873 16.3968C20.0838 16.3497 20.1811 16.3044 20.2792 16.2609C20.3774 16.2175 20.4763 16.1759 20.576 16.1362C20.6757 16.0964 20.7761 16.0585 20.8773 16.0225C20.9784 15.9865 21.0802 15.9525 21.1826 15.9203C21.285 15.8881 21.388 15.8579 21.4915 15.8296C21.595 15.8013 21.6991 15.7749 21.8036 15.7505C21.9082 15.7261 22.0131 15.7037 22.1185 15.6833C22.2238 15.6628 22.3296 15.6443 22.4357 15.6277C22.5417 15.6113 22.6481 15.5968 22.7547 15.5843C22.8613 15.5717 22.9681 15.5612 23.0751 15.5527C23.1821 15.5442 23.2892 15.5377 23.3965 15.5332C23.5038 15.5287 23.611 15.5263 23.7184 15.5258C23.8257 15.5253 23.933 15.5269 24.0403 15.5304C24.1476 15.534 24.2548 15.5396 24.3618 15.5471C24.4689 15.5547 24.5758 15.5643 24.6825 15.5759C24.7893 15.5875 24.8957 15.6011 25.0019 15.6166C25.1081 15.6322 25.214 15.6498 25.3195 15.6693C25.4251 15.6889 25.5303 15.7105 25.635 15.734C25.7397 15.7574 25.844 15.7829 25.9478 15.8103C26.0516 15.8377 26.1548 15.8671 26.2575 15.8983C26.3601 15.9296 26.4622 15.9628 26.5637 15.9979C26.6651 16.033 26.7658 16.07 26.8659 16.1089C27.6883 16.4296 28.3936 16.8981 29.1541 17.332C29.2275 17.3748 29.3016 17.4161 29.3766 17.4561C29.4515 17.496 29.5272 17.5345 29.6037 17.5715C29.6801 17.6086 29.7572 17.6442 29.835 17.6783C29.9127 17.7125 29.9911 17.7451 30.0702 17.7762C30.1492 17.8073 30.2288 17.8369 30.3089 17.8651C30.3891 17.8932 30.4697 17.9197 30.5509 17.9448C30.632 17.9698 30.7136 17.9933 30.7957 18.0153C30.8777 18.0371 30.9602 18.0575 31.043 18.0763C31.1259 18.0951 31.209 18.1123 31.2925 18.1279C31.376 18.1435 31.4597 18.1575 31.5437 18.17C31.6278 18.1824 31.712 18.1933 31.7964 18.2025C31.8808 18.2117 31.9654 18.2193 32.0502 18.2253C32.1349 18.2313 32.2197 18.2357 32.3046 18.2384C32.3895 18.2413 32.4744 18.2424 32.5593 18.2419C32.6443 18.2415 32.7292 18.2394 32.814 18.2357C32.8988 18.232 32.9836 18.2267 33.0682 18.2198C34.9887 18.0538 35.6522 17.228 37.2184 16.4216C38.3521 15.838 39.5575 15.5749 40.8234 15.5134Z"/>
</mask>
<path d="M40.8234 15.5134C41.7494 15.4472 42.7547 15.6335 43.6368 15.9059C43.7037 15.9271 43.7703 15.9492 43.8366 15.9721C43.9029 15.995 43.9689 16.0187 44.0347 16.0431C44.1004 16.0677 44.1658 16.0929 44.231 16.119C44.2961 16.1451 44.3609 16.172 44.4254 16.1996C44.4899 16.2273 44.554 16.2558 44.6178 16.285C44.6816 16.3143 44.745 16.3442 44.808 16.375C44.8711 16.4058 44.9338 16.4373 44.9961 16.4696C45.0584 16.5019 45.1203 16.535 45.1817 16.5688C45.2432 16.6026 45.3043 16.6371 45.3649 16.6724C45.4256 16.7077 45.4858 16.7438 45.5455 16.7805C45.6053 16.8173 45.6646 16.8548 45.7235 16.893C45.7823 16.9312 45.8406 16.9701 45.8985 17.0098C45.9565 17.0494 46.0139 17.0897 46.0708 17.1307C46.1277 17.1718 46.1841 17.2135 46.24 17.2559C46.2959 17.2983 46.3513 17.3414 46.4061 17.3851C46.461 17.4289 46.5153 17.4733 46.5691 17.5184C46.6229 17.5634 46.6761 17.6091 46.7287 17.6555C46.7814 17.7019 46.8335 17.7489 46.885 17.7965C46.9365 17.8442 46.9874 17.8924 47.0377 17.9413C47.0881 17.9902 47.1378 18.0397 47.1869 18.0897C47.2361 18.1398 47.2846 18.1905 47.3325 18.2418C47.3804 18.2931 47.4276 18.3449 47.4742 18.3973C47.5209 18.4498 47.5669 18.5028 47.6122 18.5563C47.6576 18.6099 47.7023 18.664 47.7463 18.7186C47.7903 18.7732 47.8337 18.8284 47.8764 18.884C47.9191 18.9398 47.9611 18.996 48.0024 19.0527C48.0437 19.1094 48.0843 19.1666 48.1241 19.2243C48.1641 19.282 48.2033 19.3402 48.2418 19.3988C48.2803 19.4575 48.3181 19.5166 48.3551 19.5762C48.3922 19.6358 48.4285 19.6958 48.4641 19.7562C48.4997 19.8167 48.5346 19.8776 48.5687 19.9389C48.6028 20.0002 48.6362 20.0619 48.6688 20.1241C48.722 20.2245 48.7726 20.3262 48.8205 20.4293C48.8684 20.5323 48.9136 20.6365 48.9562 20.7419C48.9986 20.8473 49.0383 20.9537 49.0753 21.0611C49.1122 21.1686 49.1464 21.277 49.1777 21.3862C49.209 21.4955 49.2374 21.6055 49.263 21.7162C49.2886 21.8269 49.3113 21.9382 49.3311 22.0501C49.3509 22.162 49.3678 22.2744 49.3817 22.3871C49.3957 22.4999 49.4066 22.613 49.4147 22.7263C49.5246 24.1742 49.2945 25.7474 49.0853 27.1801C48.7705 29.2437 48.3794 31.2928 47.9119 33.3273C47.4445 35.3618 46.9021 37.3761 46.2847 39.3703C45.5009 41.8717 43.4923 48.024 41.0851 49.2608C40.6181 49.5007 40.0944 49.579 39.5908 49.4084C37.7577 48.7874 36.7481 45.5137 36.2952 43.7935C35.9998 42.6713 35.8228 41.4233 35.3024 40.3825C34.9371 39.6515 34.3848 39.1048 33.6 38.8469C32.7231 38.5587 31.6528 38.5891 30.8255 39.0184C29.4571 39.7286 29.1166 41.5449 28.7457 42.8993C28.5455 43.635 28.3317 44.3667 28.1044 45.0945C27.67 46.28 27.2253 47.4904 26.3996 48.4704C25.9654 48.9858 25.3872 49.405 24.693 49.4493C24.0506 49.4903 23.4867 49.1636 23.0268 48.7467C20.271 46.2491 17.8044 36.9496 16.979 33.137C16.3157 30.073 15.7384 26.9256 15.57 23.7911C15.4609 21.7607 16.0442 19.8373 17.4233 18.3132C17.4958 18.2341 17.5698 18.1563 17.6452 18.0799C17.7205 18.0035 17.7974 17.9285 17.8756 17.855C17.9538 17.7815 18.0334 17.7095 18.1143 17.639C18.1952 17.5684 18.2774 17.4995 18.3609 17.432C18.4444 17.3646 18.5292 17.2987 18.6152 17.2344C18.7012 17.1702 18.7883 17.1076 18.8766 17.0465C18.965 16.9856 19.0545 16.9263 19.145 16.8686C19.2356 16.811 19.3272 16.7551 19.4198 16.7008C19.5125 16.6467 19.6061 16.5942 19.7007 16.5435C19.7953 16.4928 19.8908 16.4439 19.9873 16.3968C20.0838 16.3497 20.1811 16.3044 20.2792 16.2609C20.3774 16.2175 20.4763 16.1759 20.576 16.1362C20.6757 16.0964 20.7761 16.0585 20.8773 16.0225C20.9784 15.9865 21.0802 15.9525 21.1826 15.9203C21.285 15.8881 21.388 15.8579 21.4915 15.8296C21.595 15.8013 21.6991 15.7749 21.8036 15.7505C21.9082 15.7261 22.0131 15.7037 22.1185 15.6833C22.2238 15.6628 22.3296 15.6443 22.4357 15.6277C22.5417 15.6113 22.6481 15.5968 22.7547 15.5843C22.8613 15.5717 22.9681 15.5612 23.0751 15.5527C23.1821 15.5442 23.2892 15.5377 23.3965 15.5332C23.5038 15.5287 23.611 15.5263 23.7184 15.5258C23.8257 15.5253 23.933 15.5269 24.0403 15.5304C24.1476 15.534 24.2548 15.5396 24.3618 15.5471C24.4689 15.5547 24.5758 15.5643 24.6825 15.5759C24.7893 15.5875 24.8957 15.6011 25.0019 15.6166C25.1081 15.6322 25.214 15.6498 25.3195 15.6693C25.4251 15.6889 25.5303 15.7105 25.635 15.734C25.7397 15.7574 25.844 15.7829 25.9478 15.8103C26.0516 15.8377 26.1548 15.8671 26.2575 15.8983C26.3601 15.9296 26.4622 15.9628 26.5637 15.9979C26.6651 16.033 26.7658 16.07 26.8659 16.1089C27.6883 16.4296 28.3936 16.8981 29.1541 17.332C29.2275 17.3748 29.3016 17.4161 29.3766 17.4561C29.4515 17.496 29.5272 17.5345 29.6037 17.5715C29.6801 17.6086 29.7572 17.6442 29.835 17.6783C29.9127 17.7125 29.9911 17.7451 30.0702 17.7762C30.1492 17.8073 30.2288 17.8369 30.3089 17.8651C30.3891 17.8932 30.4697 17.9197 30.5509 17.9448C30.632 17.9698 30.7136 17.9933 30.7957 18.0153C30.8777 18.0371 30.9602 18.0575 31.043 18.0763C31.1259 18.0951 31.209 18.1123 31.2925 18.1279C31.376 18.1435 31.4597 18.1575 31.5437 18.17C31.6278 18.1824 31.712 18.1933 31.7964 18.2025C31.8808 18.2117 31.9654 18.2193 32.0502 18.2253C32.1349 18.2313 32.2197 18.2357 32.3046 18.2384C32.3895 18.2413 32.4744 18.2424 32.5593 18.2419C32.6443 18.2415 32.7292 18.2394 32.814 18.2357C32.8988 18.232 32.9836 18.2267 33.0682 18.2198C34.9887 18.0538 35.6522 17.228 37.2184 16.4216C38.3521 15.838 39.5575 15.5749 40.8234 15.5134Z" fill="white" stroke="#232323" stroke-width="2" mask="url(#path-2-inside-1_482_4590)"/>
<path d="M40.6577 18.6168C41.4188 18.4955 42.3355 18.6662 43.0423 18.9548C43.1257 18.9885 43.2082 19.0242 43.2899 19.062C43.3714 19.0998 43.4521 19.1395 43.5318 19.1813C43.6114 19.223 43.69 19.2668 43.7675 19.3124C43.845 19.3581 43.9214 19.4056 43.9965 19.4549C44.0717 19.5043 44.1456 19.5555 44.2183 19.6085C44.2909 19.6615 44.3622 19.7163 44.4321 19.7729C44.5021 19.8294 44.5706 19.8877 44.6377 19.9476C44.7048 20.0075 44.7703 20.0691 44.8343 20.1322C44.8984 20.1953 44.9609 20.26 45.0217 20.3263C45.0826 20.3925 45.1418 20.4602 45.1993 20.5293C45.2568 20.5984 45.3126 20.6689 45.3666 20.7409C45.4207 20.8128 45.4729 20.8859 45.5234 20.9604C45.5738 21.0348 45.6224 21.1105 45.6691 21.1874C45.7158 21.2643 45.7606 21.3422 45.8035 21.4213C45.8464 21.5003 45.8873 21.5804 45.9262 21.6615C45.9651 21.7426 46.002 21.8246 46.0369 21.9075C46.481 22.9661 46.6231 24.7074 46.1493 25.7739C46.0946 25.897 46.0403 25.9729 45.9093 26.0211C45.8013 26.0041 45.7836 25.9939 45.6978 25.9255C45.5772 25.6758 45.8484 25.0601 45.9051 24.7722C45.9519 24.4361 45.9528 24.0711 45.9367 23.7322C45.9325 23.6513 45.9264 23.5704 45.9183 23.4898C45.9102 23.4092 45.9001 23.3288 45.888 23.2487C45.8758 23.1685 45.8617 23.0887 45.8456 23.0092C45.8296 22.9298 45.8115 22.8508 45.7915 22.7722C45.7715 22.6937 45.7496 22.6157 45.7258 22.5383C45.7019 22.4608 45.6761 22.3839 45.6485 22.3078C45.6208 22.2316 45.5913 22.1561 45.5599 22.0814C45.5285 22.0066 45.4952 21.9327 45.4602 21.8597C45.4251 21.7866 45.3882 21.7144 45.3496 21.6432C45.3109 21.572 45.2705 21.5017 45.2284 21.4324C45.1863 21.3632 45.1425 21.295 45.097 21.228C45.0515 21.1609 45.0043 21.095 44.9555 21.0302C44.9067 20.9655 44.8564 20.902 44.8044 20.8398C44.7525 20.7776 44.6991 20.7167 44.6441 20.6571C44.5892 20.5975 44.5328 20.5393 44.475 20.4825C44.4171 20.4257 44.3579 20.3704 44.2973 20.3165C43.208 19.3406 42.0351 19.0492 40.6049 19.1188C40.2123 19.138 39.4068 19.591 39.0946 19.474C39.0364 19.4522 39.0189 19.3803 38.9915 19.3287C38.9963 19.2549 38.9852 19.2173 39.0334 19.1564C39.2877 18.8351 40.2409 18.6762 40.6577 18.6168Z" fill="#232323"/>
<path d="M37.3363 24.706C37.4053 24.7007 37.4725 24.6966 37.5417 24.6958C38.6139 24.6833 39.5981 25.0016 40.3655 25.7692C40.7088 26.1127 41.1498 26.6543 41.1319 27.1645C41.1242 27.385 41.0347 27.6687 40.8569 27.8123C40.6777 27.9572 40.3641 28.0356 40.1379 27.9908C39.6992 27.9041 39.5091 27.441 39.2949 27.1033C38.9591 26.5739 38.6131 26.4393 38.0281 26.3146C37.7399 26.2916 37.4432 26.2828 37.159 26.3455C36.4427 26.5035 36.1715 26.9488 35.8079 27.52C35.6696 27.7373 35.4874 27.9627 35.219 28.0111C34.9945 28.0517 34.6882 27.9414 34.5078 27.8103C34.3236 27.6764 34.2448 27.5061 34.2219 27.2821C34.1769 26.842 34.4356 26.4116 34.7007 26.0773C35.352 25.2563 36.3116 24.8233 37.3363 24.706Z" fill="#232323"/>
<path d="M26.8633 24.7073C27.1402 24.6871 27.4178 24.6804 27.6946 24.7093C28.6795 24.8122 29.6092 25.3403 30.2269 26.1104C30.4841 26.4309 30.7697 26.8753 30.7107 27.3025C30.6803 27.5224 30.5485 27.7042 30.3742 27.8363C30.1756 27.9868 29.9365 28.0447 29.6912 27.9963C29.2225 27.904 29.0675 27.4275 28.839 27.07C28.5171 26.5667 28.1223 26.4386 27.5711 26.3142C27.2628 26.2797 26.9351 26.2827 26.6306 26.3476C25.9222 26.4988 25.749 26.9458 25.3869 27.4863C25.2202 27.735 25.0056 27.9503 24.6974 27.9985C24.6704 28.0028 24.6432 28.0057 24.6159 28.0073C24.5886 28.0089 24.5613 28.0092 24.534 28.0081C24.5067 28.007 24.4795 28.0045 24.4524 28.0007C24.4253 27.997 24.3985 27.9918 24.372 27.9854C24.3454 27.9789 24.3192 27.9712 24.2933 27.9621C24.2675 27.953 24.2422 27.9427 24.2174 27.9312C24.1927 27.9197 24.1686 27.9069 24.145 27.893C24.1215 27.879 24.0987 27.864 24.0767 27.8478C24.0539 27.8311 24.0321 27.8133 24.0111 27.7944C23.9901 27.7755 23.9702 27.7556 23.9513 27.7347C23.9324 27.7138 23.9146 27.6919 23.8979 27.6692C23.8812 27.6464 23.8658 27.6229 23.8515 27.5985C23.8373 27.5741 23.8243 27.5491 23.8126 27.5235C23.8009 27.4978 23.7905 27.4716 23.7815 27.4449C23.7725 27.4182 23.7648 27.391 23.7586 27.3635C23.7523 27.336 23.7475 27.3082 23.7442 27.2802C23.6902 26.8473 23.9532 26.4013 24.2165 26.0767C24.881 25.2575 25.8279 24.8147 26.8633 24.7073Z" fill="#232323"/>
</svg>
