<svg width="182" height="34" viewBox="0 0 182 34" fill="none" xmlns="http://www.w3.org/2000/svg">
<mask id="path-1-inside-1_133_131" fill="white">
<path d="M25.2663 0.0134195C26.1923 -0.0527736 27.1976 0.133462 28.0796 0.405856C28.1465 0.42712 28.2131 0.449185 28.2795 0.47205C28.3457 0.494971 28.4118 0.518664 28.4775 0.543131C28.5433 0.567653 28.6087 0.592949 28.6739 0.619017C28.739 0.645086 28.8038 0.671954 28.8682 0.699625C28.9327 0.727295 28.9969 0.755766 29.0607 0.785038C29.1245 0.814255 29.1879 0.844245 29.2509 0.875008C29.314 0.905771 29.3767 0.937307 29.439 0.969617C29.5013 1.00193 29.5631 1.03498 29.6246 1.06878C29.6861 1.10258 29.7471 1.13713 29.8078 1.17242C29.8684 1.20771 29.9286 1.24375 29.9884 1.28053C30.0481 1.31732 30.1075 1.35479 30.1663 1.39295C30.2252 1.43117 30.2835 1.47011 30.3414 1.50977C30.3993 1.54937 30.4567 1.58968 30.5136 1.63072C30.5706 1.67175 30.627 1.71348 30.6829 1.7559C30.7388 1.79831 30.7941 1.84139 30.849 1.88514C30.9039 1.92888 30.9582 1.97328 31.0119 2.01835C31.0657 2.06342 31.1189 2.10915 31.1716 2.15554C31.2243 2.20188 31.2764 2.24888 31.3278 2.29654C31.3794 2.34415 31.4303 2.3924 31.4806 2.44127C31.531 2.49021 31.5807 2.53969 31.6298 2.58973C31.6789 2.63983 31.7275 2.69053 31.7754 2.74184C31.8232 2.79309 31.8705 2.84492 31.9171 2.89734C31.9638 2.9498 32.0098 3.0028 32.0551 3.05632C32.1005 3.10989 32.1451 3.16399 32.1892 3.21861C32.2332 3.27323 32.2765 3.32838 32.3192 3.38405C32.3619 3.43978 32.4039 3.496 32.4452 3.55272C32.4865 3.60939 32.5271 3.66658 32.567 3.72429C32.607 3.78201 32.6462 3.84019 32.6847 3.89885C32.7232 3.9575 32.7609 4.01663 32.798 4.07622C32.835 4.13576 32.8714 4.19576 32.907 4.25624C32.9426 4.31672 32.9774 4.37761 33.0116 4.43891C33.0457 4.50022 33.0791 4.56194 33.1116 4.62407C33.1649 4.72448 33.2154 4.82622 33.2633 4.92927C33.3113 5.03228 33.3565 5.1365 33.399 5.24193C33.4415 5.34731 33.4812 5.45371 33.5182 5.56113C33.5551 5.66861 33.5892 5.77697 33.6206 5.88622C33.6519 5.99546 33.6803 6.10545 33.7059 6.21619C33.7315 6.32687 33.7542 6.43818 33.774 6.55013C33.7938 6.66203 33.8106 6.77437 33.8246 6.88715C33.8385 6.99993 33.8495 7.11298 33.8576 7.22632C33.9674 8.6742 33.7374 10.2474 33.5282 11.6801C33.2134 13.7437 32.8222 15.7928 32.3548 17.8273C31.8874 19.8618 31.3449 21.8761 30.7275 23.8703C29.9437 26.3717 27.9352 32.524 25.5279 33.7608C25.0609 34.0007 24.5373 34.079 24.0337 33.9084C22.2005 33.2874 21.191 30.0137 20.7381 28.2935C20.4427 27.1713 20.2656 25.9233 19.7453 24.8825C19.3799 24.1515 18.8277 23.6048 18.0429 23.3469C17.166 23.0587 16.0957 23.0891 15.2683 23.5184C13.9 24.2286 13.5595 26.0449 13.1886 27.3993C12.9884 28.135 12.7746 28.8667 12.5473 29.5945C12.1128 30.78 11.6681 31.9904 10.8425 32.9704C10.4082 33.4858 9.83006 33.905 9.1359 33.9493C8.49352 33.9903 7.92959 33.6636 7.46964 33.2467C4.71388 30.7491 2.24726 21.4496 1.42187 17.637C0.758531 14.573 0.181268 11.4256 0.0128441 8.29112C-0.0962627 6.26067 0.487049 4.33735 1.86617 2.81325C1.93869 2.7341 2.01264 2.65631 2.08803 2.57987C2.16342 2.50349 2.24024 2.42854 2.3185 2.35503C2.39671 2.28152 2.47627 2.2095 2.55718 2.13897C2.63809 2.06844 2.7203 1.99946 2.80381 1.93203C2.88732 1.86459 2.97207 1.79873 3.05806 1.73444C3.14405 1.67021 3.2312 1.60758 3.31952 1.54655C3.40789 1.48558 3.49733 1.42626 3.58785 1.3686C3.67843 1.31099 3.77003 1.25507 3.86265 1.20084C3.95533 1.14666 4.04897 1.09422 4.14358 1.04351C4.23819 0.992813 4.33371 0.943907 4.43014 0.896796C4.52662 0.849685 4.62394 0.804396 4.72208 0.76093C4.82023 0.717464 4.91917 0.675875 5.01892 0.636165C5.11861 0.596399 5.21902 0.558512 5.32014 0.522502C5.42127 0.486547 5.52303 0.452471 5.62543 0.420272C5.72788 0.388128 5.83085 0.35789 5.93435 0.329557C6.03791 0.301279 6.14196 0.274933 6.24651 0.250522C6.35107 0.22611 6.456 0.203687 6.56132 0.183252C6.6667 0.162762 6.77244 0.14426 6.87854 0.127746C6.98458 0.111287 7.09092 0.09679 7.19757 0.0842528C7.30417 0.0717156 7.41095 0.0611933 7.51794 0.0526879C7.62497 0.0441825 7.73212 0.0376929 7.83937 0.0332193C7.94663 0.0287457 8.05392 0.0262606 8.16123 0.0257636C8.26859 0.0253217 8.37591 0.0268681 8.48316 0.0304029C8.59047 0.0339928 8.69765 0.039572 8.80468 0.0471385C8.91178 0.054705 9.01867 0.0642874 9.12538 0.0758857C9.23214 0.087484 9.33859 0.10107 9.44474 0.116644C9.55095 0.132219 9.65683 0.149783 9.76237 0.169334C9.86797 0.188941 9.97313 0.21048 10.0778 0.233953C10.1826 0.257426 10.2868 0.282887 10.3907 0.310336C10.4944 0.33773 10.5977 0.367058 10.7003 0.398318C10.803 0.429633 10.9051 0.462826 11.0065 0.497897C11.1079 0.533024 11.2087 0.570027 11.3088 0.608909C12.1312 0.929602 12.8365 1.39809 13.5969 1.83203C13.6703 1.87478 13.7445 1.91612 13.8195 1.95605C13.8944 1.99598 13.9701 2.03448 14.0465 2.07154C14.123 2.1086 14.2001 2.14419 14.2778 2.17832C14.3556 2.21246 14.434 2.2451 14.513 2.27625C14.5921 2.30734 14.6717 2.33694 14.7518 2.36506C14.8319 2.39317 14.9126 2.41973 14.9938 2.44475C15.0749 2.46983 15.1565 2.49333 15.2386 2.51525C15.3206 2.53713 15.403 2.55748 15.4859 2.57631C15.5687 2.59509 15.6519 2.61229 15.7353 2.62792C15.8188 2.6435 15.9026 2.65753 15.9866 2.67001C16.0707 2.68244 16.1549 2.69326 16.2393 2.70248C16.3237 2.71171 16.4083 2.7193 16.493 2.72527C16.5777 2.73129 16.6626 2.73568 16.7474 2.73844C16.8323 2.74126 16.9172 2.74242 17.0022 2.74192C17.0871 2.74148 17.172 2.73941 17.2569 2.7357C17.3417 2.732 17.4264 2.7267 17.5111 2.7198C19.4315 2.55378 20.095 1.72798 21.6613 0.92165C22.795 0.338007 24.0004 0.0748904 25.2663 0.0134195Z"/>
</mask>
<path d="M25.2663 0.0134195C26.1923 -0.0527736 27.1976 0.133462 28.0796 0.405856C28.1465 0.42712 28.2131 0.449185 28.2795 0.47205C28.3457 0.494971 28.4118 0.518664 28.4775 0.543131C28.5433 0.567653 28.6087 0.592949 28.6739 0.619017C28.739 0.645086 28.8038 0.671954 28.8682 0.699625C28.9327 0.727295 28.9969 0.755766 29.0607 0.785038C29.1245 0.814255 29.1879 0.844245 29.2509 0.875008C29.314 0.905771 29.3767 0.937307 29.439 0.969617C29.5013 1.00193 29.5631 1.03498 29.6246 1.06878C29.6861 1.10258 29.7471 1.13713 29.8078 1.17242C29.8684 1.20771 29.9286 1.24375 29.9884 1.28053C30.0481 1.31732 30.1075 1.35479 30.1663 1.39295C30.2252 1.43117 30.2835 1.47011 30.3414 1.50977C30.3993 1.54937 30.4567 1.58968 30.5136 1.63072C30.5706 1.67175 30.627 1.71348 30.6829 1.7559C30.7388 1.79831 30.7941 1.84139 30.849 1.88514C30.9039 1.92888 30.9582 1.97328 31.0119 2.01835C31.0657 2.06342 31.1189 2.10915 31.1716 2.15554C31.2243 2.20188 31.2764 2.24888 31.3278 2.29654C31.3794 2.34415 31.4303 2.3924 31.4806 2.44127C31.531 2.49021 31.5807 2.53969 31.6298 2.58973C31.6789 2.63983 31.7275 2.69053 31.7754 2.74184C31.8232 2.79309 31.8705 2.84492 31.9171 2.89734C31.9638 2.9498 32.0098 3.0028 32.0551 3.05632C32.1005 3.10989 32.1451 3.16399 32.1892 3.21861C32.2332 3.27323 32.2765 3.32838 32.3192 3.38405C32.3619 3.43978 32.4039 3.496 32.4452 3.55272C32.4865 3.60939 32.5271 3.66658 32.567 3.72429C32.607 3.78201 32.6462 3.84019 32.6847 3.89885C32.7232 3.9575 32.7609 4.01663 32.798 4.07622C32.835 4.13576 32.8714 4.19576 32.907 4.25624C32.9426 4.31672 32.9774 4.37761 33.0116 4.43891C33.0457 4.50022 33.0791 4.56194 33.1116 4.62407C33.1649 4.72448 33.2154 4.82622 33.2633 4.92927C33.3113 5.03228 33.3565 5.1365 33.399 5.24193C33.4415 5.34731 33.4812 5.45371 33.5182 5.56113C33.5551 5.66861 33.5892 5.77697 33.6206 5.88622C33.6519 5.99546 33.6803 6.10545 33.7059 6.21619C33.7315 6.32687 33.7542 6.43818 33.774 6.55013C33.7938 6.66203 33.8106 6.77437 33.8246 6.88715C33.8385 6.99993 33.8495 7.11298 33.8576 7.22632C33.9674 8.6742 33.7374 10.2474 33.5282 11.6801C33.2134 13.7437 32.8222 15.7928 32.3548 17.8273C31.8874 19.8618 31.3449 21.8761 30.7275 23.8703C29.9437 26.3717 27.9352 32.524 25.5279 33.7608C25.0609 34.0007 24.5373 34.079 24.0337 33.9084C22.2005 33.2874 21.191 30.0137 20.7381 28.2935C20.4427 27.1713 20.2656 25.9233 19.7453 24.8825C19.3799 24.1515 18.8277 23.6048 18.0429 23.3469C17.166 23.0587 16.0957 23.0891 15.2683 23.5184C13.9 24.2286 13.5595 26.0449 13.1886 27.3993C12.9884 28.135 12.7746 28.8667 12.5473 29.5945C12.1128 30.78 11.6681 31.9904 10.8425 32.9704C10.4082 33.4858 9.83006 33.905 9.1359 33.9493C8.49352 33.9903 7.92959 33.6636 7.46964 33.2467C4.71388 30.7491 2.24726 21.4496 1.42187 17.637C0.758531 14.573 0.181268 11.4256 0.0128441 8.29112C-0.0962627 6.26067 0.487049 4.33735 1.86617 2.81325C1.93869 2.7341 2.01264 2.65631 2.08803 2.57987C2.16342 2.50349 2.24024 2.42854 2.3185 2.35503C2.39671 2.28152 2.47627 2.2095 2.55718 2.13897C2.63809 2.06844 2.7203 1.99946 2.80381 1.93203C2.88732 1.86459 2.97207 1.79873 3.05806 1.73444C3.14405 1.67021 3.2312 1.60758 3.31952 1.54655C3.40789 1.48558 3.49733 1.42626 3.58785 1.3686C3.67843 1.31099 3.77003 1.25507 3.86265 1.20084C3.95533 1.14666 4.04897 1.09422 4.14358 1.04351C4.23819 0.992813 4.33371 0.943907 4.43014 0.896796C4.52662 0.849685 4.62394 0.804396 4.72208 0.76093C4.82023 0.717464 4.91917 0.675875 5.01892 0.636165C5.11861 0.596399 5.21902 0.558512 5.32014 0.522502C5.42127 0.486547 5.52303 0.452471 5.62543 0.420272C5.72788 0.388128 5.83085 0.35789 5.93435 0.329557C6.03791 0.301279 6.14196 0.274933 6.24651 0.250522C6.35107 0.22611 6.456 0.203687 6.56132 0.183252C6.6667 0.162762 6.77244 0.14426 6.87854 0.127746C6.98458 0.111287 7.09092 0.09679 7.19757 0.0842528C7.30417 0.0717156 7.41095 0.0611933 7.51794 0.0526879C7.62497 0.0441825 7.73212 0.0376929 7.83937 0.0332193C7.94663 0.0287457 8.05392 0.0262606 8.16123 0.0257636C8.26859 0.0253217 8.37591 0.0268681 8.48316 0.0304029C8.59047 0.0339928 8.69765 0.039572 8.80468 0.0471385C8.91178 0.054705 9.01867 0.0642874 9.12538 0.0758857C9.23214 0.087484 9.33859 0.10107 9.44474 0.116644C9.55095 0.132219 9.65683 0.149783 9.76237 0.169334C9.86797 0.188941 9.97313 0.21048 10.0778 0.233953C10.1826 0.257426 10.2868 0.282887 10.3907 0.310336C10.4944 0.33773 10.5977 0.367058 10.7003 0.398318C10.803 0.429633 10.9051 0.462826 11.0065 0.497897C11.1079 0.533024 11.2087 0.570027 11.3088 0.608909C12.1312 0.929602 12.8365 1.39809 13.5969 1.83203C13.6703 1.87478 13.7445 1.91612 13.8195 1.95605C13.8944 1.99598 13.9701 2.03448 14.0465 2.07154C14.123 2.1086 14.2001 2.14419 14.2778 2.17832C14.3556 2.21246 14.434 2.2451 14.513 2.27625C14.5921 2.30734 14.6717 2.33694 14.7518 2.36506C14.8319 2.39317 14.9126 2.41973 14.9938 2.44475C15.0749 2.46983 15.1565 2.49333 15.2386 2.51525C15.3206 2.53713 15.403 2.55748 15.4859 2.57631C15.5687 2.59509 15.6519 2.61229 15.7353 2.62792C15.8188 2.6435 15.9026 2.65753 15.9866 2.67001C16.0707 2.68244 16.1549 2.69326 16.2393 2.70248C16.3237 2.71171 16.4083 2.7193 16.493 2.72527C16.5777 2.73129 16.6626 2.73568 16.7474 2.73844C16.8323 2.74126 16.9172 2.74242 17.0022 2.74192C17.0871 2.74148 17.172 2.73941 17.2569 2.7357C17.3417 2.732 17.4264 2.7267 17.5111 2.7198C19.4315 2.55378 20.095 1.72798 21.6613 0.92165C22.795 0.338007 24.0004 0.0748904 25.2663 0.0134195Z" fill="white" stroke="#232323" stroke-width="2" mask="url(#path-1-inside-1_133_131)"/>
<path d="M25.1006 3.11678C25.8617 2.9955 26.7784 3.16624 27.4852 3.45479C27.5686 3.48848 27.6511 3.52422 27.7327 3.56199C27.8143 3.59977 27.895 3.63954 27.9746 3.68129C28.0543 3.72304 28.1329 3.76676 28.2104 3.81243C28.2879 3.85805 28.3642 3.90555 28.4394 3.95493C28.5146 4.0043 28.5885 4.0555 28.6612 4.10852C28.7338 4.16154 28.8051 4.21633 28.875 4.27289C28.945 4.32944 29.0135 4.38768 29.0805 4.44761C29.1476 4.50753 29.2132 4.56906 29.2772 4.63218C29.3413 4.69531 29.4037 4.76001 29.4646 4.82629C29.5255 4.89251 29.5847 4.96019 29.6422 5.02934C29.6997 5.09844 29.7555 5.16894 29.8095 5.24085C29.8636 5.31275 29.9158 5.38594 29.9662 5.46039C30.0167 5.53484 30.0653 5.6105 30.112 5.68738C30.1587 5.76426 30.2035 5.84222 30.2463 5.92125C30.2892 6.00034 30.3301 6.08042 30.369 6.1615C30.408 6.24258 30.4449 6.32457 30.4798 6.40747C30.9238 7.46606 31.0659 9.20738 30.5921 10.2739C30.5375 10.397 30.4832 10.4729 30.3521 10.5211C30.2442 10.5041 30.2265 10.4939 30.1406 10.4255C30.0201 10.1758 30.2912 9.56013 30.348 9.27216C30.3948 8.93606 30.3957 8.57105 30.3796 8.23221C30.3754 8.15124 30.3693 8.07044 30.3612 7.98981C30.353 7.90917 30.3429 7.82878 30.3308 7.74865C30.3187 7.66851 30.3046 7.5887 30.2885 7.50922C30.2724 7.4298 30.2544 7.3508 30.2344 7.2722C30.2144 7.19367 30.1925 7.11568 30.1686 7.03825C30.1448 6.96076 30.119 6.88394 30.0913 6.80778C30.0637 6.73156 30.0341 6.65609 30.0028 6.58136C29.9713 6.50663 29.9381 6.43274 29.903 6.35967C29.868 6.2866 29.8311 6.21444 29.7924 6.14319C29.7538 6.07195 29.7134 6.00169 29.6713 5.93244C29.6292 5.86318 29.5853 5.79502 29.5398 5.72797C29.4943 5.66092 29.4472 5.59501 29.3983 5.53022C29.3496 5.46549 29.2992 5.40201 29.2473 5.33976C29.1954 5.27757 29.142 5.21668 29.087 5.15709C29.032 5.0975 28.9757 5.03928 28.9178 4.98245C28.86 4.92568 28.8008 4.87036 28.7402 4.81651C27.6509 3.8406 26.478 3.54923 25.0478 3.61882C24.6551 3.63796 23.8497 4.09104 23.5375 3.97398C23.4793 3.95219 23.4617 3.88028 23.4343 3.82867C23.4392 3.75494 23.428 3.71733 23.4762 3.65635C23.7306 3.33508 24.6838 3.17618 25.1006 3.11678Z" fill="#232323"/>
<path d="M21.7792 9.20605C21.8482 9.20075 21.9154 9.19661 21.9846 9.19578C23.0568 9.18327 24.0409 9.50164 24.8083 10.2692C25.1517 10.6127 25.5927 11.1543 25.5748 11.6645C25.5671 11.885 25.4775 12.1687 25.2998 12.3123C25.1206 12.4572 24.807 12.5356 24.5808 12.4909C24.1421 12.4041 23.952 11.941 23.7378 11.6033C23.402 11.0739 23.056 10.9393 22.471 10.8146C22.1828 10.7916 21.8861 10.7828 21.6019 10.8456C20.8856 11.0035 20.6144 11.4488 20.2508 12.02C20.1124 12.2373 19.9302 12.4627 19.6619 12.5112C19.4374 12.5517 19.131 12.4414 18.9507 12.3103C18.7664 12.1764 18.6877 12.0061 18.6648 11.7821C18.6198 11.342 18.8785 10.9116 19.1436 10.5773C19.7949 9.75631 20.7545 9.32328 21.7792 9.20605Z" fill="#232323"/>
<path d="M11.3061 9.20728C11.5831 9.18707 11.8607 9.18036 12.1375 9.20927C13.1223 9.31217 14.0521 9.8403 14.6698 10.6103C14.927 10.9309 15.2126 11.3753 15.1535 11.8025C15.1231 12.0224 14.9914 12.2042 14.8171 12.3363C14.6184 12.4868 14.3794 12.5447 14.1341 12.4963C13.6654 12.404 13.5104 11.9275 13.2818 11.57C12.96 11.0667 12.5652 10.9386 12.014 10.8141C11.7057 10.7797 11.378 10.7827 11.0735 10.8476C10.3651 10.9988 10.1919 11.4458 9.82976 11.9863C9.66307 12.235 9.44851 12.4503 9.14024 12.4985C9.11323 12.5028 9.08609 12.5057 9.0588 12.5073C9.03152 12.5089 9.00421 12.5092 8.97687 12.5081C8.94953 12.507 8.92233 12.5045 8.89527 12.5007C8.8682 12.4969 8.84139 12.4918 8.81482 12.4854C8.78826 12.4789 8.76205 12.4712 8.7362 12.4621C8.71041 12.453 8.68512 12.4427 8.66032 12.4312C8.63558 12.4197 8.61144 12.4069 8.58791 12.393C8.56438 12.379 8.5416 12.364 8.51956 12.3478C8.49681 12.3311 8.47494 12.3133 8.45395 12.2944C8.43302 12.2755 8.41308 12.2556 8.39414 12.2347C8.37525 12.2138 8.35747 12.1919 8.34079 12.1692C8.32411 12.1464 8.30864 12.1228 8.29439 12.0985C8.28014 12.0741 8.26716 12.0491 8.25546 12.0235C8.24375 11.9978 8.23339 11.9716 8.22439 11.9449C8.21533 11.9182 8.20768 11.891 8.20144 11.8635C8.1952 11.836 8.19039 11.8082 8.18702 11.7802C8.13309 11.3473 8.39604 10.9013 8.65933 10.5767C9.32382 9.75754 10.2707 9.31473 11.3061 9.20728Z" fill="#232323"/>
<path d="M47.531 33.055C46.959 33.055 46.4457 32.9303 45.991 32.681C45.5437 32.4317 45.1917 32.0833 44.935 31.636C44.6784 31.1813 44.55 30.6717 44.55 30.107C44.55 29.5423 44.6784 29.0363 44.935 28.589C45.1917 28.1417 45.5437 27.7933 45.991 27.544C46.4457 27.2947 46.959 27.17 47.531 27.17C48.0297 27.17 48.4734 27.269 48.862 27.467C49.258 27.6577 49.5697 27.94 49.797 28.314L49.214 28.71C49.0234 28.424 48.7814 28.2113 48.488 28.072C48.1947 27.9253 47.8757 27.852 47.531 27.852C47.113 27.852 46.7354 27.9473 46.398 28.138C46.068 28.3213 45.8077 28.5853 45.617 28.93C45.4337 29.2747 45.342 29.667 45.342 30.107C45.342 30.5543 45.4337 30.9503 45.617 31.295C45.8077 31.6323 46.068 31.8963 46.398 32.087C46.7354 32.2703 47.113 32.362 47.531 32.362C47.8757 32.362 48.1947 32.2923 48.488 32.153C48.7814 32.0137 49.0234 31.801 49.214 31.515L49.797 31.911C49.5697 32.285 49.258 32.571 48.862 32.769C48.466 32.9597 48.0224 33.055 47.531 33.055Z" fill="#232323"/>
<path d="M56.2726 30.349H51.4326C51.4766 30.9503 51.7076 31.438 52.1256 31.812C52.5436 32.1787 53.0716 32.362 53.7096 32.362C54.0689 32.362 54.3989 32.2997 54.6996 32.175C55.0003 32.043 55.2606 31.8523 55.4806 31.603L55.9206 32.109C55.6639 32.417 55.3413 32.6517 54.9526 32.813C54.5713 32.9743 54.1496 33.055 53.6876 33.055C53.0936 33.055 52.5656 32.9303 52.1036 32.681C51.6489 32.4243 51.2933 32.0723 51.0366 31.625C50.7799 31.1777 50.6516 30.6717 50.6516 30.107C50.6516 29.5423 50.7726 29.0363 51.0146 28.589C51.2639 28.1417 51.6013 27.7933 52.0266 27.544C52.4593 27.2947 52.9433 27.17 53.4786 27.17C54.0139 27.17 54.4943 27.2947 54.9196 27.544C55.3449 27.7933 55.6786 28.1417 55.9206 28.589C56.1626 29.029 56.2836 29.535 56.2836 30.107L56.2726 30.349ZM53.4786 27.841C52.9213 27.841 52.4519 28.0207 52.0706 28.38C51.6966 28.732 51.4839 29.194 51.4326 29.766H55.5356C55.4843 29.194 55.2679 28.732 54.8866 28.38C54.5126 28.0207 54.0433 27.841 53.4786 27.841Z" fill="#232323"/>
<path d="M64.4804 27.214V33H63.7654V28.424L61.4224 32.296H61.0704L58.7274 28.413V33H58.0124V27.214H58.8044L61.2574 31.383L63.7544 27.214H64.4804Z" fill="#232323"/>
<path d="M71.7628 30.349H66.9228C66.9668 30.9503 67.1978 31.438 67.6158 31.812C68.0338 32.1787 68.5618 32.362 69.1998 32.362C69.5592 32.362 69.8892 32.2997 70.1898 32.175C70.4905 32.043 70.7508 31.8523 70.9708 31.603L71.4108 32.109C71.1542 32.417 70.8315 32.6517 70.4428 32.813C70.0615 32.9743 69.6398 33.055 69.1778 33.055C68.5838 33.055 68.0558 32.9303 67.5938 32.681C67.1392 32.4243 66.7835 32.0723 66.5268 31.625C66.2702 31.1777 66.1418 30.6717 66.1418 30.107C66.1418 29.5423 66.2628 29.0363 66.5048 28.589C66.7542 28.1417 67.0915 27.7933 67.5168 27.544C67.9495 27.2947 68.4335 27.17 68.9688 27.17C69.5042 27.17 69.9845 27.2947 70.4098 27.544C70.8352 27.7933 71.1688 28.1417 71.4108 28.589C71.6528 29.029 71.7738 29.535 71.7738 30.107L71.7628 30.349ZM68.9688 27.841C68.4115 27.841 67.9422 28.0207 67.5608 28.38C67.1868 28.732 66.9742 29.194 66.9228 29.766H71.0258C70.9745 29.194 70.7582 28.732 70.3768 28.38C70.0028 28.0207 69.5335 27.841 68.9688 27.841Z" fill="#232323"/>
<path d="M73.5027 27.214H74.2837V31.812L78.1446 27.214H78.8377V33H78.0567V28.402L74.2066 33H73.5027V27.214ZM76.1317 26.378C75.633 26.378 75.237 26.2533 74.9437 26.004C74.6503 25.7547 74.5 25.4027 74.4927 24.948H75.0536C75.061 25.234 75.1637 25.465 75.3617 25.641C75.5597 25.8097 75.8163 25.894 76.1317 25.894C76.447 25.894 76.7036 25.8097 76.9016 25.641C77.107 25.465 77.2133 25.234 77.2206 24.948H77.7817C77.7743 25.4027 77.6203 25.7547 77.3196 26.004C77.0263 26.2533 76.6303 26.378 76.1317 26.378Z" fill="#232323"/>
<path d="M81.0759 27.214H81.8569V29.777H85.4979V27.214H86.2789V33H85.4979V30.448H81.8569V33H81.0759V27.214Z" fill="#232323"/>
<path d="M90.4897 27.17C91.2451 27.17 91.8244 27.3607 92.2277 27.742C92.6311 28.116 92.8327 28.6733 92.8327 29.414V33H92.0847V32.098C91.9087 32.3987 91.6484 32.6333 91.3037 32.802C90.9664 32.9707 90.5631 33.055 90.0937 33.055C89.4484 33.055 88.9351 32.901 88.5537 32.593C88.1724 32.285 87.9817 31.878 87.9817 31.372C87.9817 30.8807 88.1577 30.4847 88.5097 30.184C88.8691 29.8833 89.4374 29.733 90.2147 29.733H92.0517V29.381C92.0517 28.8823 91.9124 28.5047 91.6337 28.248C91.3551 27.984 90.9481 27.852 90.4127 27.852C90.0461 27.852 89.6941 27.9143 89.3567 28.039C89.0194 28.1563 88.7297 28.3213 88.4877 28.534L88.1357 27.951C88.4291 27.7017 88.7811 27.511 89.1917 27.379C89.6024 27.2397 90.0351 27.17 90.4897 27.17ZM90.2147 32.439C90.6547 32.439 91.0324 32.34 91.3477 32.142C91.6631 31.9367 91.8977 31.6433 92.0517 31.262V30.316H90.2367C89.2467 30.316 88.7517 30.6607 88.7517 31.35C88.7517 31.6873 88.8801 31.955 89.1367 32.153C89.3934 32.3437 89.7527 32.439 90.2147 32.439Z" fill="#232323"/>
<path d="M99.3558 27.214V33H98.6408V31.086H96.6058L95.2638 33H94.4168L95.8578 30.976C95.4105 30.8513 95.0658 30.6387 94.8238 30.338C94.5818 30.0373 94.4608 29.656 94.4608 29.194C94.4608 28.5487 94.6808 28.0573 95.1208 27.72C95.5608 27.3827 96.1622 27.214 96.9248 27.214H99.3558ZM95.2528 29.216C95.2528 30.074 95.7992 30.503 96.8918 30.503H98.6408V27.907H96.9468C95.8175 27.907 95.2528 28.3433 95.2528 29.216Z" fill="#232323"/>
<path d="M106.882 33.055C106.31 33.055 105.796 32.9303 105.342 32.681C104.894 32.4317 104.542 32.0833 104.286 31.636C104.029 31.1813 103.901 30.6717 103.901 30.107C103.901 29.5423 104.029 29.0363 104.286 28.589C104.542 28.1417 104.894 27.7933 105.342 27.544C105.796 27.2947 106.31 27.17 106.882 27.17C107.38 27.17 107.824 27.269 108.213 27.467C108.609 27.6577 108.92 27.94 109.148 28.314L108.565 28.71C108.374 28.424 108.132 28.2113 107.839 28.072C107.545 27.9253 107.226 27.852 106.882 27.852C106.464 27.852 106.086 27.9473 105.749 28.138C105.419 28.3213 105.158 28.5853 104.968 28.93C104.784 29.2747 104.693 29.667 104.693 30.107C104.693 30.5543 104.784 30.9503 104.968 31.295C105.158 31.6323 105.419 31.8963 105.749 32.087C106.086 32.2703 106.464 32.362 106.882 32.362C107.226 32.362 107.545 32.2923 107.839 32.153C108.132 32.0137 108.374 31.801 108.565 31.515L109.148 31.911C108.92 32.285 108.609 32.571 108.213 32.769C107.817 32.9597 107.373 33.055 106.882 33.055Z" fill="#232323"/>
<path d="M114.622 27.907H112.433V33H111.652V27.907H109.463V27.214H114.622V27.907Z" fill="#232323"/>
<path d="M117.87 33.055C117.313 33.055 116.81 32.9303 116.363 32.681C115.916 32.4243 115.564 32.0723 115.307 31.625C115.05 31.1777 114.922 30.6717 114.922 30.107C114.922 29.5423 115.05 29.0363 115.307 28.589C115.564 28.1417 115.916 27.7933 116.363 27.544C116.81 27.2947 117.313 27.17 117.87 27.17C118.427 27.17 118.93 27.2947 119.377 27.544C119.824 27.7933 120.173 28.1417 120.422 28.589C120.679 29.0363 120.807 29.5423 120.807 30.107C120.807 30.6717 120.679 31.1777 120.422 31.625C120.173 32.0723 119.824 32.4243 119.377 32.681C118.93 32.9303 118.427 33.055 117.87 33.055ZM117.87 32.362C118.281 32.362 118.647 32.2703 118.97 32.087C119.3 31.8963 119.557 31.6287 119.74 31.284C119.923 30.9393 120.015 30.547 120.015 30.107C120.015 29.667 119.923 29.2747 119.74 28.93C119.557 28.5853 119.3 28.3213 118.97 28.138C118.647 27.9473 118.281 27.852 117.87 27.852C117.459 27.852 117.089 27.9473 116.759 28.138C116.436 28.3213 116.18 28.5853 115.989 28.93C115.806 29.2747 115.714 29.667 115.714 30.107C115.714 30.547 115.806 30.9393 115.989 31.284C116.18 31.6287 116.436 31.8963 116.759 32.087C117.089 32.2703 117.459 32.362 117.87 32.362Z" fill="#232323"/>
<path d="M128.944 27.214V33H128.229V28.424L125.886 32.296H125.534L123.191 28.413V33H122.476V27.214H123.268L125.721 31.383L128.218 27.214H128.944Z" fill="#232323"/>
<path d="M133.158 27.17C133.913 27.17 134.492 27.3607 134.896 27.742C135.299 28.116 135.501 28.6733 135.501 29.414V33H134.753V32.098C134.577 32.3987 134.316 32.6333 133.972 32.802C133.634 32.9707 133.231 33.055 132.762 33.055C132.116 33.055 131.603 32.901 131.222 32.593C130.84 32.285 130.65 31.878 130.65 31.372C130.65 30.8807 130.826 30.4847 131.178 30.184C131.537 29.8833 132.105 29.733 132.883 29.733H134.72V29.381C134.72 28.8823 134.58 28.5047 134.302 28.248C134.023 27.984 133.616 27.852 133.081 27.852C132.714 27.852 132.362 27.9143 132.025 28.039C131.687 28.1563 131.398 28.3213 131.156 28.534L130.804 27.951C131.097 27.7017 131.449 27.511 131.86 27.379C132.27 27.2397 132.703 27.17 133.158 27.17ZM132.883 32.439C133.323 32.439 133.7 32.34 134.016 32.142C134.331 31.9367 134.566 31.6433 134.72 31.262V30.316H132.905C131.915 30.316 131.42 30.6607 131.42 31.35C131.42 31.6873 131.548 31.955 131.805 32.153C132.061 32.3437 132.421 32.439 132.883 32.439Z" fill="#232323"/>
<path d="M141.65 27.907H139.461V33H138.68V27.907H136.491V27.214H141.65V27.907Z" fill="#232323"/>
<path d="M144.897 33.055C144.34 33.055 143.838 32.9303 143.39 32.681C142.943 32.4243 142.591 32.0723 142.334 31.625C142.078 31.1777 141.949 30.6717 141.949 30.107C141.949 29.5423 142.078 29.0363 142.334 28.589C142.591 28.1417 142.943 27.7933 143.39 27.544C143.838 27.2947 144.34 27.17 144.897 27.17C145.455 27.17 145.957 27.2947 146.404 27.544C146.852 27.7933 147.2 28.1417 147.449 28.589C147.706 29.0363 147.834 29.5423 147.834 30.107C147.834 30.6717 147.706 31.1777 147.449 31.625C147.2 32.0723 146.852 32.4243 146.404 32.681C145.957 32.9303 145.455 33.055 144.897 33.055ZM144.897 32.362C145.308 32.362 145.675 32.2703 145.997 32.087C146.327 31.8963 146.584 31.6287 146.767 31.284C146.951 30.9393 147.042 30.547 147.042 30.107C147.042 29.667 146.951 29.2747 146.767 28.93C146.584 28.5853 146.327 28.3213 145.997 28.138C145.675 27.9473 145.308 27.852 144.897 27.852C144.487 27.852 144.116 27.9473 143.786 28.138C143.464 28.3213 143.207 28.5853 143.016 28.93C142.833 29.2747 142.741 29.667 142.741 30.107C142.741 30.547 142.833 30.9393 143.016 31.284C143.207 31.6287 143.464 31.8963 143.786 32.087C144.116 32.2703 144.487 32.362 144.897 32.362Z" fill="#232323"/>
<path d="M154.201 27.214V33H153.42V27.907H150.648L150.571 29.337C150.513 30.5397 150.373 31.4637 150.153 32.109C149.933 32.7543 149.541 33.077 148.976 33.077C148.822 33.077 148.635 33.0477 148.415 32.989L148.47 32.318C148.602 32.3473 148.694 32.362 148.745 32.362C149.046 32.362 149.273 32.2227 149.427 31.944C149.581 31.6653 149.684 31.3207 149.735 30.91C149.787 30.4993 149.831 29.9567 149.867 29.282L149.966 27.214H154.201Z" fill="#232323"/>
<path d="M158.809 33.055C158.251 33.055 157.749 32.9303 157.302 32.681C156.854 32.4243 156.502 32.0723 156.246 31.625C155.989 31.1777 155.861 30.6717 155.861 30.107C155.861 29.5423 155.989 29.0363 156.246 28.589C156.502 28.1417 156.854 27.7933 157.302 27.544C157.749 27.2947 158.251 27.17 158.809 27.17C159.366 27.17 159.868 27.2947 160.316 27.544C160.763 27.7933 161.111 28.1417 161.361 28.589C161.617 29.0363 161.746 29.5423 161.746 30.107C161.746 30.6717 161.617 31.1777 161.361 31.625C161.111 32.0723 160.763 32.4243 160.316 32.681C159.868 32.9303 159.366 33.055 158.809 33.055ZM158.809 32.362C159.219 32.362 159.586 32.2703 159.909 32.087C160.239 31.8963 160.495 31.6287 160.679 31.284C160.862 30.9393 160.954 30.547 160.954 30.107C160.954 29.667 160.862 29.2747 160.679 28.93C160.495 28.5853 160.239 28.3213 159.909 28.138C159.586 27.9473 159.219 27.852 158.809 27.852C158.398 27.852 158.028 27.9473 157.698 28.138C157.375 28.3213 157.118 28.5853 156.928 28.93C156.744 29.2747 156.653 29.667 156.653 30.107C156.653 30.547 156.744 30.9393 156.928 31.284C157.118 31.6287 157.375 31.8963 157.698 32.087C158.028 32.2703 158.398 32.362 158.809 32.362Z" fill="#232323"/>
<path d="M167.507 27.907H164.196V33H163.415V27.214H167.507V27.907Z" fill="#232323"/>
<path d="M168.635 27.214H169.416V31.812L173.277 27.214H173.97V33H173.189V28.402L169.339 33H168.635V27.214Z" fill="#232323"/>
<path d="M180.653 27.214V33H179.938V31.086H177.903L176.561 33H175.714L177.155 30.976C176.707 30.8513 176.363 30.6387 176.121 30.338C175.879 30.0373 175.758 29.656 175.758 29.194C175.758 28.5487 175.978 28.0573 176.418 27.72C176.858 27.3827 177.459 27.214 178.222 27.214H180.653ZM176.55 29.216C176.55 30.074 177.096 30.503 178.189 30.503H179.938V27.907H178.244C177.114 27.907 176.55 28.3433 176.55 29.216Z" fill="#232323"/>
<path d="M44 2.27586H58.5466V5.22759H47.4164V9.97241H52.9415C55.1835 9.97241 56.8828 10.4598 58.0394 11.4345C59.2138 12.3908 59.801 13.7793 59.801 15.6C59.801 17.5126 59.1604 18.9931 57.8793 20.0414C56.5981 21.0713 54.7742 21.5862 52.4076 21.5862H44V2.27586ZM52.2208 18.8276C53.5554 18.8276 54.5696 18.5609 55.2636 18.0276C55.9575 17.4943 56.3045 16.7218 56.3045 15.7103C56.3045 13.7241 54.9433 12.731 52.2208 12.731H47.4164V18.8276H52.2208Z" fill="#0082B8"/>
<path d="M69.1522 2C70.9672 2 72.5954 2.43218 74.0367 3.29655C75.4958 4.14253 76.6346 5.31954 77.4531 6.82759C78.2716 8.33563 78.6809 10.0368 78.6809 11.931C78.6809 13.8253 78.2716 15.5264 77.4531 17.0345C76.6346 18.5425 75.4958 19.7287 74.0367 20.5931C72.5954 21.4391 70.9672 21.8621 69.1522 21.8621C67.5686 21.8621 66.1273 21.5862 64.8283 21.0345C63.5471 20.4828 62.4795 19.6828 61.6254 18.6345L63.814 16.4276C65.1842 17.954 66.9013 18.7172 68.9654 18.7172C70.5669 18.7172 71.9192 18.2115 73.0224 17.2C74.1434 16.1885 74.8285 14.8552 75.0776 13.2H66.7234V10.3586H75.0242C74.7217 8.7954 74.0189 7.53563 72.9157 6.57931C71.8302 5.62299 70.5135 5.14483 68.9654 5.14483C66.9013 5.14483 65.1842 5.90805 63.814 7.43448L61.6254 5.22759C62.4795 4.17931 63.5471 3.37931 64.8283 2.82759C66.1273 2.27586 67.5686 2 69.1522 2Z" fill="#0082B8"/>
<path d="M82.5767 2.27586H97.1233V5.22759H85.9932V9.97241H91.5182C93.7602 9.97241 95.4595 10.4598 96.6162 11.4345C97.7906 12.3908 98.3778 13.7793 98.3778 15.6C98.3778 17.5126 97.7372 18.9931 96.456 20.0414C95.1748 21.0713 93.351 21.5862 90.9844 21.5862H82.5767V2.27586ZM90.7975 18.8276C92.1321 18.8276 93.1463 18.5609 93.8403 18.0276C94.5343 17.4943 94.8812 16.7218 94.8812 15.7103C94.8812 13.7241 93.52 12.731 90.7975 12.731H85.9932V18.8276H90.7975Z" fill="#0082B8"/>
<path d="M102.204 2.27586H105.62V15.9862L115.656 2.27586H118.886V21.5862H115.469V7.90345L105.434 21.5862H102.204V2.27586Z" fill="#0082B8"/>
<path d="M124.151 2.27586H138.698V5.22759H127.567V9.97241H133.092C135.334 9.97241 137.034 10.4598 138.19 11.4345C139.365 12.3908 139.952 13.7793 139.952 15.6C139.952 17.5126 139.311 18.9931 138.03 20.0414C136.749 21.0713 134.925 21.5862 132.559 21.5862H124.151V2.27586ZM132.372 18.8276C133.706 18.8276 134.721 18.5609 135.415 18.0276C136.109 17.4943 136.455 16.7218 136.455 15.7103C136.455 13.7241 135.094 12.731 132.372 12.731H127.567V18.8276H132.372Z" fill="#0082B8"/>
<path d="M159.115 2.27586L151.001 17.8621C150.289 19.2414 149.435 20.2805 148.439 20.9793C147.46 21.6598 146.392 22 145.236 22C144.31 22 143.394 21.7977 142.487 21.3931L143.341 18.5793C144.07 18.8184 144.675 18.9379 145.156 18.9379C146.277 18.9379 147.202 18.3402 147.932 17.1448L148.225 16.6759L140.778 2.27586H144.488L150.013 13.6138L155.699 2.27586H159.115Z" fill="#0082B8"/>
<path d="M178.69 21.5862L178.664 8.78621L172.525 19.3793H170.977L164.838 8.95172V21.5862H161.555V2.27586H164.411L171.804 15.0483L179.117 2.27586H181.947L182 21.5862H178.69Z" fill="#0082B8"/>
</svg>
