<svg width="528" height="502" viewBox="0 0 528 502" fill="none" xmlns="http://www.w3.org/2000/svg">
<g clip-path="url(#clip0_511_1921)">
<rect width="528" height="502" fill="url(#paint0_linear_511_1921)"/>
<rect width="528" height="502" fill="url(#paint1_radial_511_1921)" fill-opacity="0.87"/>
<circle opacity="0.2" cx="581" cy="406" r="175" fill="white"/>
<circle opacity="0.2" cx="438.5" cy="17.5" r="50.5" fill="white"/>
<circle cx="621.5" cy="125.5" r="235" stroke="white"/>
<circle cx="194" cy="59" r="17.5" stroke="white"/>
<ellipse opacity="0.2" cx="3.5" cy="327" rx="144.5" ry="145" transform="rotate(180 3.5 327)" fill="white"/>
<circle opacity="0.2" cx="259.5" cy="401.5" r="50.5" transform="rotate(180 259.5 401.5)" fill="white"/>
<circle cx="456.5" cy="260.5" r="235" transform="rotate(180 456.5 260.5)" stroke="white"/>
<circle cx="8.5" cy="-80.5" r="235" transform="rotate(180 8.5 -80.5)" stroke="white"/>
<circle cx="224" cy="388" r="17.5" transform="rotate(180 224 388)" stroke="white"/>
<circle cx="248.5" cy="363.5" r="6" transform="rotate(180 248.5 363.5)" stroke="white"/>
<circle cx="426.5" cy="83.5" r="6" stroke="white"/>
</g>
<defs>
<linearGradient id="paint0_linear_511_1921" x1="6.05001" y1="15.0599" x2="579.708" y2="86.4397" gradientUnits="userSpaceOnUse">
<stop stop-color="#EAAEFF"/>
<stop offset="0.24" stop-color="#9EDDFF"/>
<stop offset="0.515" stop-color="#AFE8FF"/>
<stop offset="0.74" stop-color="#9EDDFF"/>
<stop offset="1" stop-color="#EAAEFF"/>
</linearGradient>
<radialGradient id="paint1_radial_511_1921" cx="0" cy="0" r="1" gradientTransform="matrix(671.467 21.4759 10.9302 5273.23 30.3243 229.524)" gradientUnits="userSpaceOnUse">
<stop stop-color="white"/>
<stop offset="1" stop-color="white" stop-opacity="0"/>
</radialGradient>
<clipPath id="clip0_511_1921">
<rect width="528" height="502" fill="white"/>
</clipPath>
</defs>
</svg>
