<svg width="25" height="24" viewBox="0 0 25 24" fill="none" xmlns="http://www.w3.org/2000/svg">
<path fill-rule="evenodd" clip-rule="evenodd" d="M16.5953 17.3663C15.2506 18.3913 13.5714 19 11.75 19C7.33172 19 3.75 15.4183 3.75 11C3.75 6.58172 7.33172 3 11.75 3C16.1683 3 19.75 6.58172 19.75 11C19.75 13.0713 18.9628 14.9587 17.6714 16.3794C17.6979 16.3975 17.7236 16.4175 17.7483 16.4394L22.2483 20.4394C22.5579 20.7146 22.5857 21.1887 22.3106 21.4983C22.0354 21.8079 21.5613 21.8357 21.2517 21.5606L16.7517 17.5606C16.6873 17.5033 16.6351 17.4375 16.5953 17.3663ZM18.25 11C18.25 14.5899 15.3399 17.5 11.75 17.5C8.16015 17.5 5.25 14.5899 5.25 11C5.25 7.41015 8.16015 4.5 11.75 4.5C15.3399 4.5 18.25 7.41015 18.25 11Z" fill="#8DB7CF"/>
</svg>
