<svg xmlns="http://www.w3.org/2000/svg" width="19" height="18" viewBox="0 0 19 18" fill="none">
<path fill-rule="evenodd" clip-rule="evenodd" d="M15.0648 3.1875C14.7245 3.1875 14.3475 3.28398 13.6767 3.52919C12.9946 3.77854 11.9421 4.20847 10.2222 4.92984L10.2205 4.93052C9.01886 5.43893 6.59986 6.47371 2.98284 8.07382C2.67378 8.19907 2.40532 8.33631 2.19602 8.49224C1.99256 8.64382 1.78213 8.85994 1.70792 9.15944L1.70056 9.18911L1.69647 9.21939C1.66067 9.48424 1.73508 9.72694 1.89063 9.9206C2.0282 10.0919 2.21 10.2014 2.3622 10.2759C2.59027 10.3875 2.89594 10.4843 3.18296 10.5752C3.26133 10.6001 3.33832 10.6245 3.41195 10.6486C3.73731 10.758 4.12279 10.8793 4.48819 10.9741C4.83939 11.0651 5.22405 11.1458 5.52436 11.1458C6.08018 11.1458 6.63522 10.9315 7.19815 10.5389C8.03456 9.9699 8.77011 9.47034 9.40529 9.04037L9.2037 9.22932C8.92185 9.49355 8.67989 9.72038 8.60009 9.80515C8.52152 9.8865 8.44027 9.96548 8.35533 10.0475L8.33062 10.0713C8.25426 10.145 8.17348 10.2229 8.09818 10.2998C7.93967 10.4616 7.74886 10.6733 7.63819 10.9271C7.51128 11.2181 7.49551 11.5512 7.66586 11.8846C7.8162 12.1789 8.08804 12.4258 8.42283 12.651L8.42679 12.6536C9.00322 13.0343 9.42836 13.3262 9.86812 13.6282C10.259 13.8965 10.6616 14.1729 11.1921 14.5266L11.1993 14.5313C11.3371 14.6201 11.4687 14.7127 11.6076 14.8104L11.6827 14.8631C11.8446 14.9767 12.0192 15.0973 12.1996 15.2029C12.5619 15.415 13.0009 15.5991 13.5238 15.5563L13.534 15.5555L13.5442 15.5542C14.2591 15.4694 14.6959 14.8115 14.8821 13.8119C15.3087 11.6009 16.1051 6.76409 16.3016 4.76463C16.3276 4.52408 16.303 4.25308 16.2745 4.10919C16.2494 3.9823 16.1798 3.6825 15.9106 3.45611L15.8995 3.44682L15.888 3.4381C15.7207 3.31151 15.5364 3.25353 15.4048 3.22483C15.2683 3.19506 15.1449 3.1875 15.0648 3.1875ZM10.658 5.96698C12.3823 5.24379 13.4099 4.82452 14.0629 4.58581C14.7274 4.34292 14.9406 4.3125 15.0648 4.3125C15.0815 4.3125 15.1225 4.3147 15.165 4.32398L15.1704 4.3252L15.171 4.32795C15.1742 4.34388 15.1815 4.39452 15.1853 4.46426C15.1891 4.53294 15.1882 4.59771 15.183 4.64508L15.1823 4.65172C14.9914 6.5974 14.2019 11.3995 13.7771 13.6005L13.7764 13.6043C13.6981 14.0258 13.5907 14.2454 13.5116 14.3508C13.4742 14.4008 13.4464 14.421 13.434 14.4284C13.4265 14.433 13.4211 14.4351 13.417 14.4361C13.2286 14.4476 13.0323 14.3867 12.7679 14.232C12.6314 14.1521 12.4903 14.0555 12.3287 13.9421L12.2583 13.8926C12.121 13.796 11.9698 13.6896 11.8125 13.5881C11.3307 13.2669 10.924 12.988 10.5226 12.7128C10.0599 12.3955 9.60432 12.0831 9.04878 11.7162C8.78265 11.537 8.69429 11.422 8.66957 11.3764C8.69209 11.325 8.75413 11.2378 8.90182 11.0871C8.96533 11.0222 9.03441 10.9556 9.113 10.8797L9.13671 10.8568C9.22276 10.7738 9.31781 10.6816 9.41257 10.5833L9.42016 10.5754L9.42736 10.5674C9.42563 10.5693 9.42586 10.5691 9.42893 10.566C9.43367 10.5612 9.44518 10.5496 9.46661 10.5288C9.497 10.4992 9.53823 10.4597 9.58965 10.4109C9.69232 10.3135 9.83033 10.1839 9.99291 10.0315L10.0995 9.93163C10.4062 9.64417 10.7801 9.29366 11.1513 8.94115C11.5658 8.54741 11.9812 8.14695 12.298 7.82604C12.4557 7.66639 12.5948 7.52047 12.6988 7.4021C12.7501 7.34367 12.7999 7.28409 12.8407 7.22827C12.861 7.20056 12.8847 7.1662 12.9066 7.12804C12.9233 7.09888 12.963 7.02712 12.9832 6.93209L12.9955 6.8743V6.82498C12.9958 6.81875 12.9965 6.80626 12.9969 6.79299C12.998 6.76202 12.9987 6.71044 12.9917 6.65002C12.9785 6.53715 12.9279 6.3135 12.7143 6.1519C12.4107 5.92216 12.0668 6.01394 11.9941 6.03332L11.9897 6.03451C11.9398 6.04655 11.9028 6.06209 11.8902 6.06739C11.8656 6.07774 11.8431 6.08875 11.8263 6.09735C11.7922 6.11478 11.7552 6.13574 11.7186 6.15724C11.6441 6.20098 11.5464 6.26177 11.4283 6.33725C11.1908 6.48901 10.8524 6.71187 10.4151 7.00395C9.53965 7.58873 8.25574 8.45879 6.5626 9.6106L6.55689 9.61453C6.11453 9.92351 5.78035 10.0208 5.52436 10.0208C5.37957 10.0208 5.11595 9.9746 4.77049 9.88505C4.44 9.79938 4.08129 9.68677 3.76848 9.58158L3.76443 9.58023C3.65205 9.54339 3.54996 9.51091 3.45693 9.48132C3.26254 9.4195 3.1077 9.37025 2.98117 9.31993C3.0844 9.25862 3.22551 9.18903 3.41265 9.11351L3.42124 9.11004L3.42971 9.10629C7.0448 7.50699 9.46067 6.47356 10.658 5.96698Z" fill="#005476"/>
</svg>