<svg width="31" height="31" viewBox="0 0 31 31" fill="none" xmlns="http://www.w3.org/2000/svg">
<path fill-rule="evenodd" clip-rule="evenodd" d="M24.3578 5.8125C23.7907 5.8125 23.1623 5.9733 22.0443 6.38198C20.9074 6.79757 19.1533 7.51411 16.2867 8.7164L16.284 8.71753C14.2812 9.56488 10.2496 11.2895 4.2212 13.9564C3.7061 14.1651 3.25866 14.3938 2.90984 14.6537C2.57073 14.9064 2.22002 15.2666 2.09632 15.7657L2.08407 15.8152L2.07725 15.8657C2.01759 16.3071 2.1416 16.7116 2.40084 17.0343C2.63013 17.3198 2.93313 17.5023 3.1868 17.6264C3.56691 17.8125 4.07637 17.9739 4.55473 18.1254C4.68535 18.1668 4.81366 18.2074 4.93638 18.2476C5.47865 18.43 6.12111 18.6322 6.73011 18.7901C7.31545 18.9418 7.95655 19.0763 8.45706 19.0763C9.38343 19.0763 10.3085 18.7191 11.2467 18.0648C12.6407 17.1165 13.8666 16.2839 14.9253 15.5673L14.5893 15.8822C14.1196 16.3226 13.7163 16.7006 13.5833 16.8419C13.4523 16.9775 13.3169 17.1091 13.1753 17.2458L13.1342 17.2855C13.0069 17.4083 12.8723 17.5382 12.7468 17.6663C12.4826 17.936 12.1646 18.2888 11.9801 18.7118C11.7686 19.1968 11.7423 19.7519 12.0262 20.3077C12.2768 20.7982 12.7299 21.2097 13.2878 21.585L13.2944 21.5894C14.2552 22.2238 14.9637 22.7103 15.6967 23.2136C16.3481 23.6609 17.0191 24.1216 17.9033 24.711L17.9153 24.7189C18.145 24.8669 18.3642 25.0211 18.5958 25.1839L18.7209 25.2719C18.9908 25.4612 19.2818 25.6622 19.5825 25.8382C20.1863 26.1916 20.9179 26.4985 21.7895 26.4272L21.8065 26.4258L21.8235 26.4237C23.015 26.2823 23.7429 25.1859 24.0533 23.5199C24.7643 19.8348 26.0916 11.7735 26.4192 8.44106C26.4624 8.04013 26.4215 7.58846 26.374 7.34865C26.3321 7.13716 26.2162 6.63749 25.7674 6.26019L25.749 6.2447L25.7298 6.23017C25.451 6.01918 25.1438 5.92256 24.9245 5.87471C24.697 5.8251 24.4913 5.8125 24.3578 5.8125ZM17.0131 10.445C19.8869 9.23965 21.5996 8.54086 22.688 8.14302C23.7955 7.7382 24.1508 7.6875 24.3578 7.6875C24.3856 7.6875 24.454 7.69117 24.5249 7.70664L24.5339 7.70866L24.5348 7.71325C24.5401 7.7398 24.5522 7.8242 24.5586 7.94043C24.5649 8.0549 24.5635 8.16285 24.5548 8.24181L24.5536 8.25287C24.2354 11.4957 22.9196 19.4992 22.2117 23.1675L22.2105 23.1739C22.0799 23.8764 21.9009 24.2423 21.7692 24.418C21.7068 24.5013 21.6604 24.5349 21.6398 24.5474C21.6272 24.555 21.6182 24.5585 21.6115 24.5602C21.2974 24.5794 20.9703 24.4779 20.5296 24.22C20.3022 24.0869 20.067 23.9258 19.7977 23.7369L19.6803 23.6544C19.4515 23.4934 19.1995 23.3161 18.9374 23.1469C18.1342 22.6115 17.4564 22.1467 16.7874 21.6879C16.0164 21.1592 15.257 20.6385 14.3311 20.027C13.8875 19.7283 13.7403 19.5366 13.6991 19.4606C13.7366 19.375 13.84 19.2297 14.0862 18.9784C14.192 18.8704 14.3071 18.7593 14.4381 18.6329L14.4776 18.5947C14.6211 18.4563 14.7795 18.3026 14.9374 18.1388L14.9501 18.1257L14.9621 18.1123C14.9592 18.1155 14.9596 18.1151 14.9647 18.11C14.9726 18.102 14.9918 18.0827 15.0275 18.0479C15.0781 17.9986 15.1468 17.9328 15.2325 17.8515C15.4037 17.6892 15.6337 17.4732 15.9046 17.2192L16.0822 17.0527C16.5934 16.5736 17.2167 15.9894 17.8352 15.4019C18.5261 14.7457 19.2184 14.0783 19.7465 13.5434C20.0092 13.2773 20.2411 13.0341 20.4145 12.8368C20.5 12.7395 20.583 12.6401 20.651 12.5471C20.6848 12.5009 20.7243 12.4437 20.7608 12.3801C20.7886 12.3315 20.8548 12.2119 20.8884 12.0535L20.9089 11.9572V11.875C20.9094 11.8646 20.9106 11.8438 20.9113 11.8216C20.9131 11.77 20.9143 11.6841 20.9026 11.5834C20.8806 11.3953 20.7963 11.0225 20.4403 10.7532C19.9343 10.3703 19.3611 10.5232 19.24 10.5555L19.2326 10.5575C19.1494 10.5776 19.0878 10.6035 19.0668 10.6123C19.0257 10.6296 18.9882 10.6479 18.9602 10.6623C18.9034 10.6913 18.8418 10.7262 18.7808 10.7621C18.6567 10.835 18.4938 10.9363 18.297 11.0621C17.9011 11.315 17.3372 11.6864 16.6084 12.1733C15.1492 13.1479 13.0094 14.598 10.1875 16.5177L10.1779 16.5242C9.44067 17.0392 8.88371 17.2013 8.45706 17.2013C8.21575 17.2013 7.77638 17.1243 7.20061 16.9751C6.64979 16.8323 6.05195 16.6446 5.53059 16.4693L5.52385 16.4671C5.33655 16.4056 5.1664 16.3515 5.01134 16.3022C4.68737 16.1992 4.4293 16.1171 4.21841 16.0332C4.39047 15.931 4.62564 15.8151 4.93754 15.6892L4.95186 15.6834L4.96599 15.6772C10.9911 13.0116 15.0176 11.2893 17.0131 10.445Z" fill="#0082B8"/>
</svg>
