<svg width="19" height="18" viewBox="0 0 19 18" fill="none" xmlns="http://www.w3.org/2000/svg">
<path fill-rule="evenodd" clip-rule="evenodd" d="M15.0647 3.1875C14.7244 3.1875 14.3474 3.28398 13.6766 3.52919C12.9944 3.77854 11.942 4.20847 10.222 4.92984L10.2204 4.93052C9.01874 5.43893 6.59973 6.47371 2.98272 8.07382C2.67366 8.19907 2.4052 8.33631 2.1959 8.49224C1.99244 8.64382 1.78201 8.85994 1.70779 9.15944L1.70044 9.18911L1.69635 9.21939C1.66055 9.48424 1.73496 9.72694 1.89051 9.9206C2.02808 10.0919 2.20988 10.2014 2.36208 10.2759C2.59015 10.3875 2.89582 10.4843 3.18284 10.5752C3.26121 10.6001 3.3382 10.6245 3.41183 10.6486C3.73719 10.758 4.12267 10.8793 4.48807 10.9741C4.83927 11.0651 5.22393 11.1458 5.52424 11.1458C6.08006 11.1458 6.6351 10.9315 7.19802 10.5389C8.03443 9.9699 8.76999 9.47034 9.40517 9.04037L9.20358 9.22932C8.92173 9.49355 8.67977 9.72038 8.59997 9.80515C8.5214 9.8865 8.44015 9.96548 8.3552 10.0475L8.3305 10.0713C8.25414 10.145 8.17336 10.2229 8.09805 10.2998C7.93955 10.4616 7.74874 10.6733 7.63806 10.9271C7.51115 11.2181 7.49539 11.5512 7.66574 11.8846C7.81608 12.1789 8.08791 12.4258 8.4227 12.651L8.42667 12.6536C9.0031 13.0343 9.42823 13.3262 9.868 13.6282C10.2589 13.8965 10.6614 14.1729 11.192 14.5266L11.1992 14.5313C11.337 14.6201 11.4685 14.7127 11.6075 14.8104L11.6825 14.8631C11.8445 14.9767 12.0191 15.0973 12.1995 15.2029C12.5618 15.415 13.0007 15.5991 13.5237 15.5563L13.5339 15.5555L13.5441 15.5542C14.259 15.4694 14.6958 14.8115 14.882 13.8119C15.3086 11.6009 16.105 6.76409 16.3015 4.76463C16.3275 4.52408 16.3029 4.25308 16.2744 4.10919C16.2492 3.9823 16.1797 3.6825 15.9105 3.45611L15.8994 3.44682L15.8879 3.4381C15.7206 3.31151 15.5363 3.25353 15.4047 3.22483C15.2682 3.19506 15.1448 3.1875 15.0647 3.1875ZM10.6579 5.96698C12.3821 5.24379 13.4098 4.82452 14.0628 4.58581C14.7273 4.34292 14.9405 4.3125 15.0647 4.3125C15.0813 4.3125 15.1224 4.3147 15.1649 4.32398L15.1703 4.3252L15.1709 4.32795C15.174 4.34388 15.1813 4.39452 15.1852 4.46426C15.189 4.53294 15.1881 4.59771 15.1829 4.64508L15.1822 4.65172C14.9912 6.5974 14.2017 11.3995 13.777 13.6005L13.7763 13.6043C13.6979 14.0258 13.5905 14.2454 13.5115 14.3508C13.4741 14.4008 13.4462 14.421 13.4339 14.4284C13.4263 14.433 13.4209 14.4351 13.4169 14.4361C13.2285 14.4476 13.0322 14.3867 12.7678 14.232C12.6313 14.1521 12.4902 14.0555 12.3286 13.9421L12.2582 13.8926C12.1209 13.796 11.9697 13.6896 11.8124 13.5881C11.3305 13.2669 10.9238 12.988 10.5225 12.7128C10.0598 12.3955 9.6042 12.0831 9.04866 11.7162C8.78252 11.537 8.69417 11.422 8.66945 11.3764C8.69197 11.325 8.75401 11.2378 8.9017 11.0871C8.96521 11.0222 9.03429 10.9556 9.11288 10.8797L9.13659 10.8568C9.22264 10.7738 9.31769 10.6816 9.41245 10.5833L9.42004 10.5754L9.42724 10.5674C9.42551 10.5693 9.42573 10.5691 9.4288 10.566C9.43355 10.5612 9.44505 10.5496 9.46649 10.5288C9.49688 10.4992 9.53811 10.4597 9.58953 10.4109C9.69219 10.3135 9.83021 10.1839 9.99279 10.0315L10.0993 9.93163C10.4061 9.64417 10.78 9.29366 11.1511 8.94115C11.5656 8.54741 11.9811 8.14695 12.2979 7.82604C12.4555 7.66639 12.5947 7.52047 12.6987 7.4021C12.75 7.34367 12.7998 7.28409 12.8406 7.22827C12.8609 7.20056 12.8846 7.1662 12.9065 7.12804C12.9232 7.09888 12.9629 7.02712 12.9831 6.93209L12.9953 6.8743V6.82498C12.9957 6.81875 12.9963 6.80626 12.9968 6.79299C12.9979 6.76202 12.9986 6.71044 12.9915 6.65002C12.9784 6.53715 12.9278 6.3135 12.7142 6.1519C12.4106 5.92216 12.0666 6.01394 11.994 6.03332L11.9895 6.03451C11.9397 6.04655 11.9027 6.06209 11.8901 6.06739C11.8654 6.07774 11.8429 6.08875 11.8261 6.09735C11.7921 6.11478 11.7551 6.13574 11.7185 6.15724C11.644 6.20098 11.5463 6.26177 11.4282 6.33725C11.1906 6.48901 10.8523 6.71187 10.415 7.00395C9.53953 7.58873 8.25562 8.45879 6.56248 9.6106L6.55677 9.61453C6.1144 9.92351 5.78022 10.0208 5.52424 10.0208C5.37945 10.0208 5.11583 9.9746 4.77036 9.88505C4.43987 9.79938 4.08117 9.68677 3.76835 9.58158L3.76431 9.58023C3.65193 9.54339 3.54984 9.51091 3.4568 9.48132C3.26242 9.4195 3.10758 9.37025 2.98105 9.31993C3.08428 9.25862 3.22538 9.18903 3.41252 9.11351L3.42112 9.11004L3.42959 9.10629C7.04467 7.50699 9.46055 6.47356 10.6579 5.96698Z" fill="#0082B8"/>
</svg>
