<svg width="35" height="34" viewBox="0 0 35 34" fill="none" xmlns="http://www.w3.org/2000/svg">
<rect x="0.75" width="34" height="34" rx="17" fill="#0DC143"/>
<path d="M13.7643 12.6213L13.3007 13.7071C12.9284 14.5792 12.8056 15.5497 13.1661 16.4271C13.5992 17.4809 14.4291 18.9789 15.9652 20.3484C17.5014 21.7178 19.0818 22.3686 20.176 22.6761C21.0869 22.9322 22.0332 22.6958 22.8528 22.2224L23.9073 21.6133C24.6223 21.2004 24.7342 20.2109 24.1297 19.6473L23.3211 18.8732C22.8751 18.4574 22.1906 18.438 21.7224 18.8282C21.1973 19.2657 20.0535 19.8475 19.4565 19.515C19.1003 19.3166 18.2529 18.6636 17.9784 18.4188C17.6598 18.1348 16.8706 17.2938 16.6119 16.9202C16.2813 16.4429 16.6582 15.3578 16.8862 14.8238L17.0295 14.4932C17.2371 14.0068 17.1137 13.4438 16.7193 13.0922L15.7051 12.1867C15.0796 11.6292 14.0937 11.8499 13.7643 12.6213Z" fill="white"/>
<path fill-rule="evenodd" clip-rule="evenodd" d="M26.8156 8.06919C21.8395 3.34189 13.9257 3.71924 9.42197 8.89854C6.21997 12.5808 5.55471 17.8307 7.73701 22.1953L8.65552 24.0323L8.12646 27.7358C8.00479 28.5875 8.801 29.2819 9.62825 29.0455L13.3776 27.9743L15.6459 28.6094C22.9737 30.6612 30.3343 25.4551 30.8404 17.8623C31.0775 14.3058 29.7198 10.8282 27.1355 8.37317L26.8156 8.06919ZM10.8369 10.1289C14.6399 5.75542 21.3223 5.4368 25.5242 9.42857L25.8441 9.73255C28.0242 11.8036 29.1696 14.7373 28.9696 17.7376C28.5426 24.1429 22.3332 28.5348 16.1515 26.8039L13.3724 26.0257L10.1325 26.9514L10.5945 23.7177L9.41406 21.3568C7.5713 17.6713 8.13306 13.2382 10.8369 10.1289Z" fill="white"/>
</svg>
