<svg width="30" height="30" viewBox="0 0 30 30" fill="none" xmlns="http://www.w3.org/2000/svg">
<path fill-rule="evenodd" clip-rule="evenodd" d="M23.8578 5.3125C23.2907 5.3125 22.6623 5.4733 21.5443 5.88198C20.4074 6.29757 18.6533 7.01411 15.7867 8.2164L15.784 8.21753C13.7812 9.06488 9.74956 10.7895 3.7212 13.4564C3.2061 13.6651 2.75866 13.8938 2.40984 14.1537C2.07073 14.4064 1.72002 14.7666 1.59632 15.2657L1.58407 15.3152L1.57725 15.3657C1.51759 15.8071 1.6416 16.2116 1.90084 16.5343C2.13013 16.8198 2.43313 17.0023 2.6868 17.1264C3.06691 17.3125 3.57637 17.4739 4.05473 17.6254C4.18535 17.6668 4.31366 17.7074 4.43638 17.7476C4.97865 17.93 5.62111 18.1322 6.23011 18.2901C6.81545 18.4418 7.45655 18.5763 7.95706 18.5763C8.88343 18.5763 9.8085 18.2191 10.7467 17.5648C12.1407 16.6165 13.3666 15.7839 14.4253 15.0673L14.0893 15.3822C13.6196 15.8226 13.2163 16.2006 13.0833 16.3419C12.9523 16.4775 12.8169 16.6091 12.6753 16.7458L12.6342 16.7855C12.5069 16.9083 12.3723 17.0382 12.2468 17.1663C11.9826 17.436 11.6646 17.7888 11.4801 18.2118C11.2686 18.6968 11.2423 19.2519 11.5262 19.8077C11.7768 20.2982 12.2299 20.7097 12.7878 21.085L12.7944 21.0894C13.7552 21.7238 14.4637 22.2103 15.1967 22.7136C15.8481 23.1609 16.5191 23.6216 17.4033 24.211L17.4153 24.2189C17.645 24.3669 17.8642 24.5211 18.0958 24.6839L18.2209 24.7719C18.4908 24.9612 18.7818 25.1622 19.0825 25.3382C19.6863 25.6916 20.4179 25.9985 21.2895 25.9272L21.3065 25.9258L21.3235 25.9237C22.515 25.7823 23.2429 24.6859 23.5533 23.0199C24.2643 19.3348 25.5916 11.2735 25.9192 7.94106C25.9624 7.54013 25.9215 7.08846 25.874 6.84865C25.8321 6.63716 25.7162 6.13749 25.2674 5.76019L25.249 5.7447L25.2298 5.73017C24.951 5.51918 24.6438 5.42256 24.4245 5.37471C24.197 5.3251 23.9913 5.3125 23.8578 5.3125ZM16.5131 9.94497C19.3869 8.73965 21.0996 8.04086 22.188 7.64302C23.2955 7.2382 23.6508 7.1875 23.8578 7.1875C23.8856 7.1875 23.954 7.19117 24.0249 7.20664L24.0339 7.20866L24.0348 7.21325C24.0401 7.2398 24.0522 7.3242 24.0586 7.44043C24.0649 7.5549 24.0635 7.66285 24.0548 7.74181L24.0536 7.75287C23.7354 10.9957 22.4196 18.9992 21.7117 22.6675L21.7105 22.6739C21.5799 23.3764 21.4009 23.7423 21.2692 23.918C21.2068 24.0013 21.1604 24.0349 21.1398 24.0474C21.1272 24.055 21.1182 24.0585 21.1115 24.0602C20.7974 24.0794 20.4703 23.9779 20.0296 23.72C19.8022 23.5869 19.567 23.4258 19.2977 23.2369L19.1803 23.1544C18.9515 22.9934 18.6995 22.8161 18.4374 22.6469C17.6342 22.1115 16.9564 21.6467 16.2874 21.1879C15.5164 20.6592 14.757 20.1385 13.8311 19.527C13.3875 19.2283 13.2403 19.0366 13.1991 18.9606C13.2366 18.875 13.34 18.7297 13.5862 18.4784C13.692 18.3704 13.8071 18.2593 13.9381 18.1329L13.9776 18.0947C14.1211 17.9563 14.2795 17.8026 14.4374 17.6388L14.4501 17.6257L14.4621 17.6123C14.4592 17.6155 14.4596 17.6151 14.4647 17.61C14.4726 17.602 14.4918 17.5827 14.5275 17.5479C14.5781 17.4986 14.6468 17.4328 14.7325 17.3515C14.9037 17.1892 15.1337 16.9732 15.4046 16.7192L15.5822 16.5527C16.0934 16.0736 16.7167 15.4894 17.3352 14.9019C18.0261 14.2457 18.7184 13.5783 19.2465 13.0434C19.5092 12.7773 19.7411 12.5341 19.9145 12.3368C20 12.2395 20.083 12.1401 20.151 12.0471C20.1848 12.0009 20.2243 11.9437 20.2608 11.8801C20.2886 11.8315 20.3548 11.7119 20.3884 11.5535L20.4089 11.4572V11.375C20.4094 11.3646 20.4106 11.3438 20.4113 11.3216C20.4131 11.27 20.4143 11.1841 20.4026 11.0834C20.3806 10.8953 20.2963 10.5225 19.9403 10.2532C19.4343 9.87026 18.8611 10.0232 18.74 10.0555L18.7326 10.0575C18.6494 10.0776 18.5878 10.1035 18.5668 10.1123C18.5257 10.1296 18.4882 10.1479 18.4602 10.1623C18.4034 10.1913 18.3418 10.2262 18.2808 10.2621C18.1567 10.335 17.9938 10.4363 17.797 10.5621C17.4011 10.815 16.8372 11.1864 16.1084 11.6733C14.6492 12.6479 12.5094 14.098 9.68746 16.0177L9.67795 16.0242C8.94067 16.5392 8.38371 16.7013 7.95706 16.7013C7.71575 16.7013 7.27638 16.6243 6.70061 16.4751C6.14979 16.3323 5.55195 16.1446 5.03059 15.9693L5.02385 15.9671C4.83655 15.9056 4.6664 15.8515 4.51134 15.8022C4.18737 15.6992 3.9293 15.6171 3.71841 15.5332C3.89047 15.431 4.12564 15.3151 4.43754 15.1892L4.45186 15.1834L4.46599 15.1772C10.4911 12.5116 14.5176 10.7893 16.5131 9.94497Z" fill="white"/>
</svg>
