<svg width="18" height="18" viewBox="0 0 18 18" fill="none" xmlns="http://www.w3.org/2000/svg">
<path fill-rule="evenodd" clip-rule="evenodd" d="M2.29304 4.65056L2.93761 3.36141C3.39549 2.44566 4.61595 2.24761 5.33991 2.97157L7.05122 4.68287C7.50776 5.13941 7.62094 5.83687 7.3322 6.41435L7.13515 6.80845C6.81812 7.4425 6.81285 8.19278 7.18226 8.79782C7.47145 9.27148 7.8417 9.81546 8.21043 10.1842C8.52823 10.502 8.97619 10.8209 9.39712 11.0881C10.1026 11.5359 11.0025 11.4515 11.6755 10.9563C12.2756 10.5147 13.1103 10.5872 13.6252 11.1257L15.0948 12.6623C15.7927 13.3921 15.5848 14.5891 14.6816 15.0407L13.3493 15.7069C12.314 16.2245 11.1409 16.4445 10.0465 16.0672C8.73193 15.6141 6.84802 14.7081 5.06991 12.93C3.2918 11.1519 2.38581 9.26796 1.93267 7.95341C1.55543 6.85904 1.77535 5.68593 2.29304 4.65056ZM3.29927 5.15368L3.94384 3.86453C4.05831 3.63559 4.36343 3.58608 4.54442 3.76706L6.25572 5.47837C6.36986 5.5925 6.39815 5.76687 6.32597 5.91124L6.12892 6.30533C5.65969 7.2438 5.62711 8.40958 6.22208 9.38406C6.52111 9.87383 6.94779 10.5125 7.41494 10.9797C7.82119 11.3859 8.35233 11.7574 8.79422 12.0379C9.94158 12.7662 11.3458 12.5956 12.3422 11.8624C12.4869 11.756 12.6881 11.7735 12.8122 11.9033L14.2818 13.4399C14.4563 13.6223 14.4043 13.9216 14.1785 14.0345L12.8462 14.7006C11.9826 15.1324 11.132 15.2514 10.4131 15.0036C9.21984 14.5923 7.49593 13.765 5.8654 12.1345C4.23487 10.504 3.40758 8.78005 2.99626 7.58679C2.74846 6.86794 2.86749 6.01724 3.29927 5.15368Z" fill="white"/>
</svg>
