<svg width="18" height="18" viewBox="0 0 18 18" fill="none" xmlns="http://www.w3.org/2000/svg">
<path fill-rule="evenodd" clip-rule="evenodd" d="M9.375 9.375C8.96534 9.375 8.57486 9.42632 8.21912 9.51923C7.13607 9.8021 6.375 10.4705 6.375 11.25C6.375 12.2855 7.71815 13.125 9.375 13.125C11.0319 13.125 12.375 12.2855 12.375 11.25C12.375 10.4705 11.6139 9.8021 10.5309 9.51923C10.1751 9.42632 9.78466 9.375 9.375 9.375ZM11.25 11.2502C11.25 11.256 11.25 11.2865 11.2075 11.3493C11.1607 11.4186 11.0666 11.5178 10.9001 11.6218C10.5626 11.8328 10.0263 12 9.375 12C8.72369 12 8.18743 11.8328 7.84993 11.6218C7.68342 11.5178 7.58933 11.4186 7.54246 11.3493C7.49996 11.2865 7.49999 11.256 7.5 11.2502C7.49999 11.2443 7.49996 11.2135 7.54246 11.1507C7.58933 11.0814 7.68342 10.9822 7.84993 10.8782C8.18743 10.6672 8.72369 10.5 9.375 10.5C10.0263 10.5 10.5626 10.6672 10.9001 10.8782C11.0666 10.9822 11.1607 11.0814 11.2075 11.1507C11.25 11.2135 11.25 11.2443 11.25 11.2502Z" fill="#0082B8"/>
<path fill-rule="evenodd" clip-rule="evenodd" d="M7.5 6.75C7.5 7.41736 7.84865 8.00328 8.37374 8.33556C8.66343 8.51888 9.00682 8.625 9.375 8.625C9.74318 8.625 10.0866 8.51888 10.3763 8.33556C10.9014 8.00328 11.25 7.41736 11.25 6.75C11.25 5.71447 10.4105 4.875 9.375 4.875C8.33947 4.875 7.5 5.71447 7.5 6.75ZM10.125 6.75C10.125 7.16421 9.78921 7.5 9.375 7.5C8.96079 7.5 8.625 7.16421 8.625 6.75C8.625 6.33579 8.96079 6 9.375 6C9.78921 6 10.125 6.33579 10.125 6.75Z" fill="#0082B8"/>
<path fill-rule="evenodd" clip-rule="evenodd" d="M7.5 2.4375C5.85694 2.4375 4.47368 3.54981 4.06214 5.0625H3.75C3.43934 5.0625 3.1875 5.31434 3.1875 5.625C3.1875 5.93566 3.43934 6.1875 3.75 6.1875H3.9375V7.3125H3.75C3.43934 7.3125 3.1875 7.56434 3.1875 7.875C3.1875 8.18566 3.43934 8.4375 3.75 8.4375H3.9375V9.5625H3.75C3.43934 9.5625 3.1875 9.81434 3.1875 10.125C3.1875 10.4357 3.43934 10.6875 3.75 10.6875H3.9375V11.8125H3.75C3.43934 11.8125 3.1875 12.0643 3.1875 12.375C3.1875 12.6857 3.43934 12.9375 3.75 12.9375H4.06214C4.47368 14.4502 5.85694 15.5625 7.5 15.5625H11.25C13.2175 15.5625 14.8125 13.9675 14.8125 12V6C14.8125 4.03249 13.2175 2.4375 11.25 2.4375H7.5ZM7.5 3.5625C6.48602 3.5625 5.61665 4.18164 5.24931 5.0625C5.55997 5.0625 5.8125 5.31434 5.8125 5.625C5.8125 5.93566 5.56066 6.1875 5.25 6.1875H5.0625V7.3125H5.25C5.56066 7.3125 5.8125 7.56434 5.8125 7.875C5.8125 8.18566 5.56066 8.4375 5.25 8.4375H5.0625V9.5625H5.25C5.56066 9.5625 5.8125 9.81434 5.8125 10.125C5.8125 10.4357 5.56066 10.6875 5.25 10.6875H5.0625V11.8125H5.25C5.56066 11.8125 5.8125 12.0643 5.8125 12.375C5.8125 12.6857 5.56066 12.9375 5.25 12.9375C5.61733 13.8184 6.48602 14.4375 7.5 14.4375H11.25C12.5962 14.4375 13.6875 13.3462 13.6875 12V6C13.6875 4.65381 12.5962 3.5625 11.25 3.5625H7.5Z" fill="#0082B8"/>
</svg>
