<svg width="18" height="18" viewBox="0 0 18 18" fill="none" xmlns="http://www.w3.org/2000/svg">
<path fill-rule="evenodd" clip-rule="evenodd" d="M12.5626 4.5C13.1251 4.5 12.5626 4.49924 12.5626 4.49924L12.5626 4.49843L12.5626 4.49664L12.5626 4.49242L12.5624 4.48145C12.5622 4.47304 12.5619 4.46242 12.5613 4.44976C12.5602 4.42444 12.5581 4.39079 12.5542 4.34999C12.5465 4.26858 12.5315 4.15748 12.5024 4.02641C12.4444 3.76572 12.3282 3.41562 12.0931 3.06298C11.6011 2.32487 10.664 1.6875 9.00012 1.6875C7.33626 1.6875 6.39917 2.32487 5.90709 3.06298C5.672 3.41562 5.55582 3.76572 5.49789 4.02641C5.46877 4.15748 5.45377 4.26858 5.44602 4.34999C5.44213 4.39079 5.44003 4.42444 5.43891 4.44976C5.43835 4.46242 5.43802 4.47304 5.43784 4.48145L5.43766 4.49242L5.43763 4.49664L5.43762 4.49843L5.43762 4.49924C5.43762 4.49924 4.88352 4.5 5.44602 4.5H4.15608C3.05619 4.5 2.11751 5.29518 1.93669 6.3801C1.70811 7.75155 2.76571 9 4.15607 9H13.844C15.2344 9 16.292 7.75155 16.0634 6.3801C15.8826 5.29518 14.9439 4.5 13.844 4.5H12.5626ZM11.4375 4.5H6.56279C6.56313 4.49236 6.56397 4.47737 6.56595 4.45665C6.56991 4.41501 6.57835 4.35033 6.5961 4.27046C6.63192 4.10928 6.70324 3.89688 6.84315 3.68702C7.10107 3.30013 7.66398 2.8125 9.00012 2.8125C10.3363 2.8125 10.8992 3.30013 11.1571 3.68702C11.297 3.89688 11.3683 4.10928 11.4041 4.27046C11.4219 4.35033 11.4303 4.41501 11.4343 4.45665C11.4363 4.47737 11.4371 4.49236 11.4375 4.5ZM4.15607 7.875C3.46089 7.875 2.93209 7.25077 3.04638 6.56505C3.13679 6.02259 3.60613 5.625 4.15608 5.625H13.844C14.3939 5.625 14.8633 6.02259 14.9537 6.56505C15.068 7.25077 14.5392 7.875 13.844 7.875H4.15607Z" fill="#0082B8"/>
<path d="M9.56253 10.875C9.56253 10.5643 9.31069 10.3125 9.00003 10.3125C8.68937 10.3125 8.43753 10.5643 8.43753 10.875V11.8125H7.50003C7.18937 11.8125 6.93753 12.0643 6.93753 12.375C6.93753 12.6857 7.18937 12.9375 7.50003 12.9375H8.43753V13.875C8.43753 14.1857 8.68937 14.4375 9.00003 14.4375C9.31069 14.4375 9.56253 14.1857 9.56253 13.875V12.9375H10.5C10.8107 12.9375 11.0625 12.6857 11.0625 12.375C11.0625 12.0643 10.8107 11.8125 10.5 11.8125H9.56253V10.875Z" fill="#0082B8"/>
<path d="M15.557 10.5795C15.6009 10.272 15.3872 9.98709 15.0797 9.94315C14.7721 9.89922 14.4872 10.1129 14.4433 10.4205L14.0612 13.0947C13.8897 14.2955 12.8613 15.1875 11.6482 15.1875H6.35201C5.13898 15.1875 4.11055 14.2955 3.93901 13.0947L3.55697 10.4205C3.51303 10.1129 3.22811 9.89922 2.92057 9.94315C2.61303 9.98709 2.39934 10.272 2.44328 10.5795L2.82531 13.2538C3.07604 15.0089 4.57913 16.3125 6.35201 16.3125H11.6482C13.4211 16.3125 14.9242 15.0089 15.1749 13.2538L15.557 10.5795Z" fill="#0082B8"/>
</svg>
