<svg width="18" height="18" viewBox="0 0 18 18" fill="none" xmlns="http://www.w3.org/2000/svg">
<path d="M8.22673 10.4264C8.22673 10.4777 8.26834 10.5193 8.31967 10.5193H9.29631C9.34764 10.5193 9.38926 10.4777 9.38926 10.4264C9.39158 10.1737 9.42067 9.96163 9.47653 9.79004C9.53472 9.61606 9.62316 9.46473 9.74185 9.33603C9.86288 9.20734 10.0176 9.08341 10.2062 8.96425C10.4203 8.83317 10.6053 8.68422 10.7612 8.5174C10.9172 8.35057 11.037 8.15991 11.1208 7.94542C11.2069 7.73093 11.25 7.48785 11.25 7.21616C11.25 6.81339 11.1546 6.46544 10.9637 6.17231C10.7752 5.87679 10.5111 5.64919 10.1713 5.48951C9.83379 5.32984 9.44278 5.25 8.99825 5.25C8.59096 5.25 8.21858 5.32626 7.88111 5.47879C7.54597 5.63132 7.27599 5.86011 7.07118 6.16516C6.9723 6.31412 6.89618 6.4807 6.84281 6.66489C6.74436 7.00471 7.04172 7.30195 7.39552 7.30195H7.40912C7.73628 7.30195 7.97389 7.02136 8.15341 6.74786C8.25116 6.6001 8.37335 6.49047 8.51998 6.41897C8.66893 6.34509 8.82603 6.30815 8.99127 6.30815C9.17048 6.30815 9.33223 6.34628 9.47653 6.42255C9.62316 6.49881 9.73953 6.60605 9.82564 6.74428C9.91175 6.88251 9.95481 7.04576 9.95481 7.23403C9.95481 7.40086 9.92223 7.55219 9.85706 7.68804C9.79189 7.8215 9.70229 7.94304 9.58825 8.05267C9.47653 8.15991 9.34969 8.25882 9.20772 8.34938C9.00058 8.48046 8.82486 8.62464 8.68057 8.78193C8.53627 8.93684 8.42455 9.1418 8.34542 9.39681C8.26862 9.65181 8.22905 9.995 8.22673 10.4264Z" fill="#0082B8"/>
<path d="M8.29306 12.5212C8.44434 12.6737 8.62471 12.75 8.83417 12.75C8.97382 12.75 9.10066 12.7154 9.2147 12.6463C9.33107 12.5748 9.42417 12.4795 9.49399 12.3603C9.56614 12.2412 9.60221 12.1089 9.60221 11.9635C9.60221 11.749 9.52541 11.5655 9.3718 11.413C9.22052 11.2605 9.04131 11.1842 8.83417 11.1842C8.62471 11.1842 8.44434 11.2605 8.29306 11.413C8.14178 11.5655 8.06614 11.749 8.06614 11.9635C8.06614 12.1828 8.14178 12.3687 8.29306 12.5212Z" fill="#0082B8"/>
<path fill-rule="evenodd" clip-rule="evenodd" d="M16.5 9C16.5 13.1421 13.1421 16.5 9 16.5C4.85786 16.5 1.5 13.1421 1.5 9C1.5 4.85786 4.85786 1.5 9 1.5C13.1421 1.5 16.5 4.85786 16.5 9ZM15.375 9C15.375 12.5208 12.5208 15.375 9 15.375C5.47918 15.375 2.625 12.5208 2.625 9C2.625 5.47918 5.47918 2.625 9 2.625C12.5208 2.625 15.375 5.47918 15.375 9Z" fill="#0082B8"/>
</svg>
