<svg width="16" height="16" viewBox="0 0 16 16" fill="none" xmlns="http://www.w3.org/2000/svg">
<path d="M8.5753 5.2531C8.58221 4.93128 8.32322 4.66668 8.00133 4.66668C7.67959 4.66668 7.42067 4.93105 7.42736 5.25272L7.50197 8.83575C7.50762 9.10685 7.729 9.32368 8.00017 9.32368C8.27121 9.32368 8.49254 9.10705 8.49836 8.83607L8.5753 5.2531Z" fill="#0082B8"/>
<path d="M7.52728 11.1272C7.6586 11.2646 7.81617 11.3333 8.00001 11.3333C8.12122 11.3333 8.23132 11.3022 8.33031 11.2399C8.43132 11.1755 8.51213 11.0896 8.57274 10.9823C8.63536 10.8749 8.66668 10.7558 8.66668 10.6248C8.66668 10.4316 8.60001 10.2662 8.46668 10.1288C8.33536 9.99142 8.17981 9.92271 8.00001 9.92271C7.81617 9.92271 7.6586 9.99142 7.52728 10.1288C7.39799 10.2662 7.33334 10.4316 7.33334 10.6248C7.33334 10.8223 7.39799 10.9898 7.52728 11.1272Z" fill="#0082B8"/>
<path fill-rule="evenodd" clip-rule="evenodd" d="M14.6667 8.00001C14.6667 11.6819 11.6819 14.6667 8.00001 14.6667C4.31811 14.6667 1.33334 11.6819 1.33334 8.00001C1.33334 4.31811 4.31811 1.33334 8.00001 1.33334C11.6819 1.33334 14.6667 4.31811 14.6667 8.00001ZM13.6667 8.00001C13.6667 11.1296 11.1296 13.6667 8.00001 13.6667C4.8704 13.6667 2.33334 11.1296 2.33334 8.00001C2.33334 4.8704 4.8704 2.33334 8.00001 2.33334C11.1296 2.33334 13.6667 4.8704 13.6667 8.00001Z" fill="#0082B8"/>
</svg>
