<svg width="18" height="18" viewBox="0 0 18 18" fill="none" xmlns="http://www.w3.org/2000/svg">
<path d="M5.4375 6.75C5.4375 6.43934 5.68934 6.1875 6 6.1875H11.25C11.5607 6.1875 11.8125 6.43934 11.8125 6.75C11.8125 7.06066 11.5607 7.3125 11.25 7.3125H6C5.68934 7.3125 5.4375 7.06066 5.4375 6.75Z" fill="#0082B8"/>
<path d="M6 9.1875C5.68934 9.1875 5.4375 9.43934 5.4375 9.75C5.4375 10.0607 5.68934 10.3125 6 10.3125H12C12.3107 10.3125 12.5625 10.0607 12.5625 9.75C12.5625 9.43934 12.3107 9.1875 12 9.1875H6Z" fill="#0082B8"/>
<path fill-rule="evenodd" clip-rule="evenodd" d="M1.6875 6C1.6875 4.03249 3.28249 2.4375 5.25 2.4375H12.75C14.7175 2.4375 16.3125 4.03249 16.3125 6V10.7742C16.3125 12.5903 14.8403 14.0625 13.0242 14.0625C12.5002 14.0625 11.994 14.2527 11.5996 14.5978L10.3582 15.684C9.58055 16.3645 8.41945 16.3644 7.64183 15.684L6.40037 14.5978C6.00601 14.2527 5.49982 14.0625 4.97582 14.0625C3.15973 14.0625 1.6875 12.5903 1.6875 10.7742V6ZM5.25 3.5625C3.90381 3.5625 2.8125 4.65381 2.8125 6V10.7742C2.8125 11.969 3.78105 12.9375 4.97582 12.9375C5.77232 12.9375 6.54175 13.2266 7.14119 13.7511L8.38265 14.8374C8.73611 15.1467 9.26389 15.1467 9.61735 14.8374L10.8588 13.7511C11.4582 13.2266 12.2277 12.9375 13.0242 12.9375C14.219 12.9375 15.1875 11.969 15.1875 10.7742V6C15.1875 4.65381 14.0962 3.5625 12.75 3.5625H5.25Z" fill="#0082B8"/>
</svg>
