<svg width="18" height="18" viewBox="0 0 18 18" fill="none" xmlns="http://www.w3.org/2000/svg">
<path fill-rule="evenodd" clip-rule="evenodd" d="M11.775 10.875C11.775 11.9623 10.8684 12.8438 9.74999 12.8438C8.63161 12.8438 7.72499 11.9623 7.72499 10.875C7.72499 9.78769 8.63161 8.90625 9.74999 8.90625C10.8684 8.90625 11.775 9.78769 11.775 10.875ZM10.65 10.875C10.65 11.3113 10.2771 11.7188 9.74999 11.7188C9.22285 11.7188 8.84999 11.3113 8.84999 10.875C8.84999 10.4387 9.22285 10.0312 9.74999 10.0312C10.2771 10.0312 10.65 10.4387 10.65 10.875Z" fill="#0082B8"/>
<path fill-rule="evenodd" clip-rule="evenodd" d="M15 4.125V5.75303C15.8739 6.06191 16.5 6.89534 16.5 7.875V13.875C16.5 15.1176 15.4926 16.125 14.25 16.125H5.25C4.00736 16.125 3 15.1176 3 13.875V12.247C2.12611 11.9381 1.5 11.1047 1.5 10.125V4.125C1.5 2.88236 2.50736 1.875 3.75 1.875H12.75C13.9926 1.875 15 2.88236 15 4.125ZM4.7625 3H11.7375C11.7375 4.13909 12.6609 5.0625 13.8 5.0625H13.875V5.625H9.56161C9.20825 5.33266 8.7503 5.15625 8.24997 5.15625C7.74964 5.15625 7.29169 5.33266 6.93834 5.625H5.25C4.00736 5.625 3 6.63236 3 7.875V9.20916C2.90206 9.19489 2.80189 9.1875 2.7 9.1875H2.625V5.0625H2.7C3.83908 5.0625 4.7625 4.13909 4.7625 3ZM3 10.3615V10.9635C2.81397 10.797 2.68368 10.5695 2.64055 10.3125H2.7C2.80491 10.3125 2.90581 10.3297 3 10.3615ZM12.8625 3.00556C13.3687 3.05582 13.7763 3.44167 13.8594 3.9375H13.8C13.2841 3.9375 12.8655 3.52076 12.8625 3.00556ZM2.7 3.9375H2.64055C2.72374 3.44168 3.13125 3.05583 3.63748 3.00556C3.63449 3.52077 3.21591 3.9375 2.7 3.9375ZM13.2375 6.75H6.2625C6.2625 7.88909 5.33909 8.8125 4.20001 8.8125H4.125V12.9375H4.20001C5.33909 12.9375 6.2625 13.8609 6.2625 15H13.2375C13.2375 13.8609 14.1609 12.9375 15.3 12.9375H15.375V8.8125H15.3C14.1609 8.8125 13.2375 7.88909 13.2375 6.75ZM4.14055 7.6875C4.22374 7.19167 4.63125 6.80582 5.13749 6.75556C5.1345 7.27077 4.71592 7.6875 4.20001 7.6875H4.14055ZM5.13749 14.9944C5.13449 14.4792 4.71592 14.0625 4.20001 14.0625H4.14055C4.22374 14.5583 4.63125 14.9442 5.13749 14.9944ZM15.3594 14.0625C15.2763 14.5583 14.8687 14.9442 14.3625 14.9944C14.3655 14.4792 14.7841 14.0625 15.3 14.0625H15.3594ZM14.3625 6.75556C14.3655 7.27076 14.7841 7.6875 15.3 7.6875H15.3594C15.2763 7.19167 14.8687 6.80582 14.3625 6.75556Z" fill="#0082B8"/>
</svg>
