<svg width="18" height="18" viewBox="0 0 18 18" fill="none" xmlns="http://www.w3.org/2000/svg">
<path fill-rule="evenodd" clip-rule="evenodd" d="M10.9888 11.7845L6.21581 7.01155L3.9619 9.26545C2.64388 10.5835 2.64388 12.7204 3.9619 14.0384C5.27992 15.3564 7.41686 15.3564 8.73487 14.0384L10.9888 11.7845ZM11.7843 10.989L7.0113 6.21605L9.26521 3.96215C10.5832 2.64413 12.7202 2.64413 14.0382 3.96215C15.3562 5.28017 15.3562 7.4171 14.0382 8.73512L11.7843 10.989ZM14.8337 9.53061C16.591 7.77325 16.591 4.92401 14.8337 3.16665C13.0763 1.40929 10.2271 1.40929 8.46971 3.16665L3.16641 8.46995C1.40905 10.2273 1.40905 13.0766 3.16641 14.8339C4.92377 16.5913 7.77301 16.5913 9.53037 14.8339L14.8337 9.53061Z" fill="#0082B8"/>
</svg>
