<svg width="18" height="18" viewBox="0 0 18 18" fill="none" xmlns="http://www.w3.org/2000/svg">
<path fill-rule="evenodd" clip-rule="evenodd" d="M13.3753 1.44503C13.1557 1.22536 12.7995 1.22536 12.5798 1.44503C12.3602 1.6647 12.3602 2.02085 12.5798 2.24052L13.7731 3.43376L12.9776 4.22926L12.3147 3.56635C11.5092 2.76089 10.2033 2.76089 9.39785 3.56635L7.28025 5.68395C7.279 5.68518 7.27774 5.68642 7.27649 5.68767C7.27525 5.68892 7.274 5.69017 7.27277 5.69143L5.68927 7.27494C5.68801 7.27617 5.68675 7.27741 5.6855 7.27866C5.68425 7.27991 5.68301 7.28116 5.68178 7.28242L5.15521 7.80899C4.36232 8.60188 3.98901 9.72182 4.14759 10.8319L4.42601 12.7808L3.03389 14.1729C2.81422 14.3926 2.81422 14.7488 3.03389 14.9684C3.25356 15.1881 3.60972 15.1881 3.82939 14.9684L5.2215 13.5763L7.17047 13.8547C8.28052 14.0133 9.40045 13.64 10.1933 12.8471L14.436 8.60448C15.2414 7.79903 15.2414 6.49312 14.436 5.68767L13.7731 5.02475L14.5686 4.22926L15.7618 5.4225C15.9815 5.64217 16.3376 5.64217 16.5573 5.4225C16.777 5.20283 16.777 4.84668 16.5573 4.62701L13.3753 1.44503ZM6.08327 8.47192L5.95071 8.60448C5.4082 9.14699 5.15278 9.91326 5.26128 10.6728L5.51982 12.4825L7.32957 12.7411C8.08908 12.8496 8.85535 12.5941 9.39785 12.0516L13.6405 7.80899C14.0066 7.44287 14.0066 6.84928 13.6405 6.48316L11.5192 4.36184C11.1531 3.99572 10.5595 3.99572 10.1933 4.36184L8.46975 6.08544L9.13265 6.74833C9.35232 6.968 9.35232 7.32416 9.13265 7.54383C8.91298 7.7635 8.55682 7.7635 8.33715 7.54383L7.67426 6.88093L6.87876 7.67643L7.54166 8.33932C7.76133 8.55899 7.76133 8.91515 7.54166 9.13482C7.32199 9.35449 6.96583 9.35449 6.74616 9.13482L6.08327 8.47192Z" fill="#0082B8"/>
</svg>
