<svg width="16" height="16" viewBox="0 0 16 16" fill="none" xmlns="http://www.w3.org/2000/svg">
<path fill-rule="evenodd" clip-rule="evenodd" d="M6.33334 8.66665C7.62201 8.66665 8.66668 7.62198 8.66668 6.33331C8.66668 5.04465 7.62201 3.99998 6.33334 3.99998C5.04468 3.99998 4.00001 5.04465 4.00001 6.33331C4.00001 7.62198 5.04468 8.66665 6.33334 8.66665ZM6.33334 7.66665C7.06972 7.66665 7.66668 7.06969 7.66668 6.33331C7.66668 5.59693 7.06972 4.99998 6.33334 4.99998C5.59696 4.99998 5.00001 5.59693 5.00001 6.33331C5.00001 7.06969 5.59696 7.66665 6.33334 7.66665Z" fill="#0082B8"/>
<path d="M9.02023 11.6869L11.6869 9.0202C11.8822 8.82494 11.8822 8.50835 11.6869 8.31309C11.4916 8.11783 11.1751 8.11783 10.9798 8.31309L8.31312 10.9798C8.11786 11.175 8.11786 11.4916 8.31312 11.6869C8.50838 11.8821 8.82497 11.8821 9.02023 11.6869Z" fill="#0082B8"/>
<path fill-rule="evenodd" clip-rule="evenodd" d="M4.23995 1.33331H7.73207C8.53021 1.33331 9.29322 1.66165 9.84213 2.2413L13.8701 6.49489C14.9731 7.65959 14.9247 9.49791 13.762 10.6029L10.3276 13.867C9.16265 14.9742 7.32073 14.9256 6.21563 13.7586L2.12989 9.44408C1.61842 8.90396 1.33334 8.18824 1.33334 7.44423V4.24116C1.33334 2.6352 2.63467 1.33331 4.23995 1.33331ZM7.73207 2.33331H4.23995C3.18736 2.33331 2.33334 3.18708 2.33334 4.24116V7.44423C2.33334 7.93251 2.52043 8.40214 2.85599 8.75649L6.94173 13.0711C7.66661 13.8365 8.8746 13.8683 9.6387 13.1421L13.0731 9.87807C13.8359 9.15305 13.8677 7.9467 13.144 7.18248L9.11603 2.92889C8.75593 2.54862 8.25547 2.33331 7.73207 2.33331Z" fill="#0082B8"/>
</svg>
