<svg width="18" height="18" viewBox="0 0 18 18" fill="none" xmlns="http://www.w3.org/2000/svg">
<path fill-rule="evenodd" clip-rule="evenodd" d="M8.94993 5.57413C8.67689 5.58951 8.3972 5.53087 8.10874 5.41549C7.22495 5.06197 6.81338 4.6308 6.52357 4.32719C6.46399 4.26478 6.40956 4.20775 6.35723 4.1579C6.22253 4.02959 6.09593 3.93707 5.88897 3.86705C5.66548 3.79143 5.31999 3.73301 4.73811 3.73301C4.30547 3.73301 4.01894 3.85373 3.81966 4.02645C3.6135 4.20513 3.45029 4.48366 3.35094 4.88084C3.14809 5.69171 3.24864 6.85449 3.60843 8.11369C4.08801 9.79212 4.63245 12.3612 4.96736 14.0189C5.34728 13.3124 5.85537 12.4629 6.42713 11.766C6.73393 11.3921 7.07373 11.0439 7.43766 10.7852C7.79856 10.5286 8.22494 10.3307 8.69262 10.3307C9.15157 10.3307 9.56173 10.5391 9.90092 10.801C10.2439 11.0657 10.5628 11.4223 10.8518 11.808C11.4196 12.566 11.9294 13.5156 12.321 14.3339C12.3297 14.3343 12.3396 14.3339 12.3502 14.3325C12.3615 14.3309 12.3717 14.3284 12.3804 14.3255C12.6626 12.7598 13.2013 10.5632 14.1997 8.74723C14.6681 7.89524 14.8838 6.62839 14.645 5.55492C14.5274 5.02618 14.3056 4.57102 13.9781 4.2331C13.6565 3.90125 13.2073 3.65512 12.5774 3.57638C11.9183 3.49399 11.5097 3.60086 11.2294 3.75241C10.9374 3.91029 10.7257 4.14679 10.4996 4.43948C10.4707 4.47683 10.44 4.51724 10.4081 4.55923C10.3253 4.66834 10.2343 4.7881 10.1465 4.89237C10.0199 5.04277 9.86492 5.20524 9.67047 5.33335C9.46791 5.46682 9.22966 5.55838 8.94993 5.57413ZM10.6943 2.7628C11.2156 2.48094 11.8679 2.35394 12.7169 2.46007C13.587 2.56883 14.2765 2.92441 14.786 3.45019C15.2897 3.9699 15.5913 4.62826 15.7432 5.31062C16.0432 6.65936 15.7816 8.20501 15.1855 9.28922C14.2651 10.9634 13.7516 13.0444 13.4791 14.5721C13.3785 15.1363 12.8808 15.3954 12.5025 15.4471C12.1243 15.4988 11.5743 15.3826 11.3274 14.8638C10.9444 14.0595 10.4637 13.1663 9.95139 12.4825C9.69491 12.1401 9.44553 11.8707 9.21341 11.6914C8.97753 11.5093 8.80592 11.4557 8.69262 11.4557C8.54521 11.4557 8.34551 11.5201 8.08948 11.7021C7.83649 11.882 7.56851 12.1485 7.29685 12.4796C6.75379 13.1415 6.25458 13.9883 5.88064 14.6974C5.64695 15.1405 5.1835 15.2922 4.80273 15.2441C4.41996 15.1958 4.00277 14.9288 3.9017 14.4257C3.57018 12.7754 3.01042 10.1156 2.52672 8.42277C2.14358 7.08185 1.98741 5.69578 2.25957 4.60782C2.39772 4.05558 2.65494 3.5472 3.08284 3.17633C3.51761 2.7995 4.07876 2.60801 4.73811 2.60801C5.38349 2.60801 5.8647 2.67119 6.24953 2.80139C6.65087 2.93719 6.91419 3.13472 7.13318 3.34333C7.21486 3.42114 7.28751 3.49648 7.35828 3.56988C7.63451 3.85637 7.88214 4.11318 8.52656 4.37095C8.70685 4.44307 8.81976 4.45468 8.88667 4.45091C8.94689 4.44752 8.99594 4.43055 9.05151 4.39393C9.1152 4.35197 9.18915 4.28281 9.28586 4.16791C9.35465 4.08619 9.41806 4.00265 9.4926 3.90445C9.52833 3.85738 9.56662 3.80693 9.60929 3.7517C9.85414 3.43477 10.1847 3.03832 10.6943 2.7628Z" fill="#0082B8"/>
</svg>
