<svg width="18" height="18" viewBox="0 0 18 18" fill="none" xmlns="http://www.w3.org/2000/svg">
<path fill-rule="evenodd" clip-rule="evenodd" d="M12.375 5.625C12.375 7.48896 10.864 9 9.00004 9C7.13608 9 5.62504 7.48896 5.62504 5.625C5.62504 3.76104 7.13608 2.25 9.00004 2.25C10.864 2.25 12.375 3.76104 12.375 5.625ZM11.25 5.625C11.25 6.86764 10.2427 7.875 9.00004 7.875C7.7574 7.875 6.75004 6.86764 6.75004 5.625C6.75004 4.38236 7.7574 3.375 9.00004 3.375C10.2427 3.375 11.25 4.38236 11.25 5.625Z" fill="#0082B8"/>
<path fill-rule="evenodd" clip-rule="evenodd" d="M14.4 12.7125C14.4 14.3901 11.9824 15.75 9.00004 15.75C6.0177 15.75 3.60004 14.3901 3.60004 12.7125C3.60004 11.0349 6.0177 9.675 9.00004 9.675C11.9824 9.675 14.4 11.0349 14.4 12.7125ZM13.275 12.7125C13.275 12.9643 13.0817 13.4215 12.2669 13.8798C11.4873 14.3183 10.3346 14.625 9.00004 14.625C7.66549 14.625 6.51277 14.3183 5.7332 13.8798C4.91837 13.4215 4.72504 12.9643 4.72504 12.7125C4.72504 12.4607 4.91837 12.0035 5.7332 11.5452C6.51277 11.1067 7.66549 10.8 9.00004 10.8C10.3346 10.8 11.4873 11.1067 12.2669 11.5452C13.0817 12.0035 13.275 12.4607 13.275 12.7125Z" fill="#0082B8"/>
<path d="M13.875 5.62499C13.875 5.29461 13.7682 4.98918 13.5873 4.74135C13.4207 4.51325 13.1913 4.33394 12.9246 4.22886L12.9056 4.22115C12.8716 4.20704 12.8381 4.19117 12.8054 4.17362C12.771 4.1551 12.7374 4.13472 12.7053 4.11259C12.5159 3.98209 12.375 3.79089 12.375 3.56249C12.375 3.25183 12.6298 2.99373 12.9335 3.05951C13.8325 3.25429 14.5599 3.90965 14.8563 4.76621C14.9495 5.03529 15 5.32424 15 5.62499C15 5.92575 14.9495 6.21469 14.8563 6.48378C14.5599 7.34033 13.8325 7.9957 12.9335 8.19047C12.6298 8.25625 12.375 7.99815 12.375 7.68749C12.375 7.45909 12.5159 7.26789 12.7053 7.13739C12.7374 7.11526 12.771 7.09488 12.8054 7.07636C12.8381 7.05881 12.8716 7.04294 12.9056 7.02883L12.9246 7.02112C13.1913 6.91604 13.4207 6.73673 13.5873 6.50863C13.7682 6.2608 13.875 5.95537 13.875 5.62499Z" fill="#0082B8"/>
<path d="M15.375 12.375C15.375 12.4404 15.3407 12.5882 15.1685 12.778C15.105 12.848 15.0228 12.9236 14.9166 13.003C14.8971 13.0175 14.8784 13.0329 14.8604 13.0491C14.8419 13.0656 14.8243 13.0829 14.8076 13.1009C14.6961 13.2214 14.625 13.3745 14.625 13.5405C14.625 13.9697 15.0655 14.2596 15.4224 14.0213C15.4801 13.9827 15.5358 13.9433 15.5894 13.903L15.6109 13.8868C15.7727 13.7633 15.9151 13.6321 16.036 13.4943C16.3336 13.1548 16.5 12.7753 16.5 12.375C16.5 11.9747 16.3336 11.5952 16.0359 11.2557C15.9151 11.1179 15.7727 10.9866 15.6109 10.8632L15.5894 10.847C15.5358 10.8067 15.4801 10.7673 15.4224 10.7287C15.0655 10.4903 14.625 10.7803 14.625 11.2095C14.625 11.3755 14.6961 11.5286 14.8076 11.6491C14.8243 11.6671 14.8419 11.6844 14.8604 11.7009C14.8784 11.7171 14.8971 11.7324 14.9166 11.747C15.0228 11.8264 15.105 11.902 15.1685 11.972C15.3407 12.1618 15.375 12.3096 15.375 12.375Z" fill="#0082B8"/>
<path d="M4.125 5.62488C4.125 5.2945 4.23181 4.98907 4.41278 4.74123C4.57933 4.51314 4.8087 4.33383 5.07544 4.22874L5.09448 4.22104C5.12846 4.20693 5.16196 4.19105 5.19461 4.17351C5.22908 4.15499 5.26261 4.1346 5.29473 4.11247C5.48418 3.98198 5.625 3.79078 5.625 3.56238C5.625 3.25172 5.37021 2.99362 5.06659 3.0594C4.16754 3.25417 3.44011 3.90954 3.1437 4.76609C3.05058 5.03518 3 5.32412 3 5.62488C3 5.92563 3.05058 6.21457 3.1437 6.48366C3.44011 7.34022 4.16754 7.99558 5.06659 8.19036C5.37021 8.25613 5.625 7.99804 5.625 7.68738C5.625 7.45897 5.48418 7.26777 5.29473 7.13728C5.26261 7.11515 5.22908 7.09477 5.19461 7.07624C5.16196 7.0587 5.12845 7.04282 5.09448 7.02871L5.07544 7.02101C4.8087 6.91593 4.57933 6.73662 4.41278 6.50852C4.23181 6.26068 4.125 5.95525 4.125 5.62488Z" fill="#0082B8"/>
<path d="M2.625 12.3749C2.625 12.4403 2.65935 12.5881 2.83156 12.7779C2.89505 12.8479 2.97728 12.9235 3.08345 13.0029C3.1029 13.0174 3.12168 13.0328 3.13969 13.0489C3.1581 13.0654 3.17571 13.0827 3.19242 13.1008C3.30399 13.2212 3.375 13.3744 3.375 13.5404C3.375 13.9695 2.93454 14.2595 2.57765 14.0212C2.51998 13.9826 2.46428 13.9432 2.41064 13.9029L2.38912 13.8866C2.22739 13.7632 2.08493 13.632 1.96409 13.4941C1.66644 13.1546 1.5 12.7752 1.5 12.3749C1.5 11.9745 1.66644 11.5951 1.9641 11.2556C2.08494 11.1178 2.22739 10.9865 2.38912 10.8631L2.41064 10.8468C2.46428 10.8066 2.51998 10.7671 2.57765 10.7286C2.93454 10.4902 3.375 10.7802 3.375 11.2094C3.375 11.3753 3.30399 11.5285 3.19242 11.649C3.17571 11.667 3.1581 11.6843 3.13969 11.7008C3.12168 11.717 3.1029 11.7323 3.08345 11.7469C2.97728 11.8262 2.89505 11.9019 2.83156 11.9719C2.65935 12.1617 2.625 12.3095 2.625 12.3749Z" fill="#0082B8"/>
</svg>
